<svg width="540" height="338" viewBox="0 0 540 338" fill="none" xmlns="http://www.w3.org/2000/svg">
<rect x="299" y="49" width="164" height="284" rx="17" fill="#5F818A" stroke="#B9DBE6" stroke-width="6"/>
<rect x="330" y="144" width="102" height="43" rx="5" fill="#B9DBE6"/>
<path d="M374.265 176.199C373.157 176.199 372.175 176.009 371.318 175.631C370.466 175.247 369.793 174.719 369.301 174.047C368.808 173.375 368.557 172.6 368.548 171.724H372.085C372.099 172.042 372.201 172.323 372.39 172.57C372.58 172.811 372.838 173 373.164 173.138C373.491 173.275 373.863 173.344 374.279 173.344C374.696 173.344 375.063 173.27 375.38 173.124C375.702 172.972 375.953 172.766 376.133 172.506C376.313 172.241 376.401 171.937 376.396 171.597C376.401 171.256 376.304 170.953 376.105 170.688C375.906 170.422 375.624 170.216 375.26 170.07C374.9 169.923 374.474 169.849 373.981 169.849H372.568V167.349H373.981C374.412 167.349 374.791 167.278 375.118 167.136C375.449 166.994 375.707 166.795 375.892 166.54C376.076 166.279 376.166 165.981 376.162 165.645C376.166 165.318 376.088 165.032 375.927 164.786C375.771 164.535 375.551 164.34 375.267 164.203C374.987 164.066 374.663 163.997 374.294 163.997C373.905 163.997 373.553 164.066 373.235 164.203C372.923 164.34 372.674 164.535 372.49 164.786C372.305 165.036 372.208 165.328 372.199 165.659H368.839C368.849 164.793 369.09 164.03 369.564 163.372C370.037 162.709 370.681 162.191 371.495 161.817C372.315 161.443 373.247 161.256 374.294 161.256C375.335 161.256 376.252 161.438 377.042 161.803C377.833 162.167 378.449 162.664 378.889 163.294C379.329 163.919 379.549 164.627 379.549 165.418C379.554 166.237 379.287 166.911 378.747 167.442C378.212 167.972 377.523 168.299 376.68 168.422V168.536C377.807 168.668 378.657 169.033 379.23 169.629C379.807 170.226 380.094 170.972 380.089 171.866C380.089 172.709 379.841 173.457 379.343 174.111C378.851 174.759 378.164 175.271 377.284 175.645C376.408 176.014 375.402 176.199 374.265 176.199ZM387.605 176.199C386.497 176.199 385.515 176.009 384.658 175.631C383.805 175.247 383.133 174.719 382.641 174.047C382.148 173.375 381.897 172.6 381.888 171.724H385.425C385.439 172.042 385.541 172.323 385.73 172.57C385.92 172.811 386.178 173 386.504 173.138C386.831 173.275 387.203 173.344 387.619 173.344C388.036 173.344 388.403 173.27 388.72 173.124C389.042 172.972 389.293 172.766 389.473 172.506C389.653 172.241 389.741 171.937 389.736 171.597C389.741 171.256 389.643 170.953 389.445 170.688C389.246 170.422 388.964 170.216 388.599 170.07C388.24 169.923 387.813 169.849 387.321 169.849H385.908V167.349H387.321C387.752 167.349 388.131 167.278 388.457 167.136C388.789 166.994 389.047 166.795 389.232 166.54C389.416 166.279 389.506 165.981 389.501 165.645C389.506 165.318 389.428 165.032 389.267 164.786C389.111 164.535 388.891 164.34 388.607 164.203C388.327 164.066 388.003 163.997 387.634 163.997C387.245 163.997 386.893 164.066 386.575 164.203C386.263 164.34 386.014 164.535 385.83 164.786C385.645 165.036 385.548 165.328 385.538 165.659H382.179C382.188 164.793 382.43 164.03 382.903 163.372C383.377 162.709 384.021 162.191 384.835 161.817C385.654 161.443 386.587 161.256 387.634 161.256C388.675 161.256 389.591 161.438 390.382 161.803C391.173 162.167 391.788 162.664 392.229 163.294C392.669 163.919 392.889 164.627 392.889 165.418C392.894 166.237 392.626 166.911 392.087 167.442C391.552 167.972 390.863 168.299 390.02 168.422V168.536C391.147 168.668 391.997 169.033 392.57 169.629C393.147 170.226 393.434 170.972 393.429 171.866C393.429 172.709 393.18 173.457 392.683 174.111C392.191 174.759 391.504 175.271 390.624 175.645C389.748 176.014 388.741 176.199 387.605 176.199Z" fill="#304852"/>
<rect x="330" y="204" width="102" height="43" rx="5" fill="#B9DBE6"/>
<path d="M370.898 238.298C369.236 238.298 367.762 238.014 366.477 237.446C365.198 236.871 364.19 236.079 363.451 235.07C362.713 234.062 362.336 232.901 362.322 231.587H367.627C367.649 232.062 367.801 232.485 368.085 232.854C368.369 233.217 368.757 233.501 369.247 233.707C369.737 233.913 370.294 234.016 370.919 234.016C371.544 234.016 372.095 233.906 372.57 233.685C373.053 233.458 373.43 233.149 373.7 232.759C373.97 232.361 374.101 231.906 374.094 231.395C374.101 230.884 373.955 230.429 373.657 230.031C373.359 229.634 372.936 229.325 372.389 229.104C371.85 228.884 371.21 228.774 370.472 228.774H368.352V225.024H370.472C371.118 225.024 371.686 224.918 372.176 224.705C372.673 224.491 373.061 224.193 373.338 223.81C373.615 223.419 373.749 222.972 373.742 222.467C373.749 221.977 373.632 221.548 373.391 221.178C373.156 220.802 372.826 220.511 372.4 220.305C371.981 220.099 371.494 219.996 370.941 219.996C370.358 219.996 369.829 220.099 369.353 220.305C368.884 220.511 368.512 220.802 368.235 221.178C367.958 221.555 367.812 221.991 367.798 222.489H362.759C362.773 221.189 363.135 220.045 363.845 219.058C364.556 218.064 365.521 217.286 366.743 216.725C367.972 216.164 369.371 215.884 370.941 215.884C372.503 215.884 373.877 216.157 375.063 216.704C376.249 217.251 377.173 217.996 377.833 218.941C378.494 219.879 378.824 220.94 378.824 222.126C378.831 223.355 378.43 224.367 377.62 225.163C376.818 225.958 375.784 226.448 374.52 226.633V226.803C376.21 227.002 377.485 227.549 378.345 228.444C379.211 229.339 379.641 230.457 379.634 231.8C379.634 233.064 379.261 234.186 378.515 235.166C377.776 236.139 376.747 236.906 375.426 237.467C374.112 238.021 372.602 238.298 370.898 238.298ZM390.908 238.298C389.246 238.298 387.772 238.014 386.487 237.446C385.208 236.871 384.2 236.079 383.461 235.07C382.722 234.062 382.346 232.901 382.332 231.587H387.637C387.658 232.062 387.811 232.485 388.095 232.854C388.379 233.217 388.766 233.501 389.256 233.707C389.746 233.913 390.304 234.016 390.929 234.016C391.554 234.016 392.104 233.906 392.58 233.685C393.063 233.458 393.44 233.149 393.71 232.759C393.979 232.361 394.111 231.906 394.104 231.395C394.111 230.884 393.965 230.429 393.667 230.031C393.369 229.634 392.946 229.325 392.399 229.104C391.859 228.884 391.22 228.774 390.482 228.774H388.362V225.024H390.482C391.128 225.024 391.696 224.918 392.186 224.705C392.683 224.491 393.07 224.193 393.347 223.81C393.624 223.419 393.759 222.972 393.752 222.467C393.759 221.977 393.642 221.548 393.401 221.178C393.166 220.802 392.836 220.511 392.41 220.305C391.991 220.099 391.504 219.996 390.95 219.996C390.368 219.996 389.839 220.099 389.363 220.305C388.894 220.511 388.521 220.802 388.244 221.178C387.967 221.555 387.822 221.991 387.808 222.489H382.768C382.783 221.189 383.145 220.045 383.855 219.058C384.565 218.064 385.531 217.286 386.753 216.725C387.982 216.164 389.381 215.884 390.95 215.884C392.513 215.884 393.887 216.157 395.073 216.704C396.259 217.251 397.183 217.996 397.843 218.941C398.504 219.879 398.834 220.94 398.834 222.126C398.841 223.355 398.44 224.367 397.63 225.163C396.827 225.958 395.794 226.448 394.53 226.633V226.803C396.22 227.002 397.495 227.549 398.354 228.444C399.221 229.339 399.651 230.457 399.643 231.8C399.643 233.064 399.271 234.186 398.525 235.166C397.786 236.139 396.756 236.906 395.435 237.467C394.121 238.021 392.612 238.298 390.908 238.298Z" fill="#304852"/>
<rect x="330" y="204" width="102" height="43" rx="5" fill="#B9DBE6"/>
<path d="M371.423 218.455V233H368.441L362.652 224.605H362.56V233H359.044V218.455H362.07L367.794 226.835H367.915V218.455H371.423ZM378.733 233.206C377.592 233.206 376.608 232.981 375.779 232.531C374.955 232.077 374.321 231.43 373.876 230.592C373.435 229.75 373.215 228.748 373.215 227.588C373.215 226.461 373.438 225.476 373.883 224.634C374.328 223.786 374.955 223.128 375.765 222.659C376.574 222.186 377.528 221.949 378.627 221.949C379.403 221.949 380.114 222.07 380.758 222.311C381.402 222.553 381.958 222.91 382.427 223.384C382.895 223.857 383.26 224.442 383.52 225.138C383.781 225.829 383.911 226.622 383.911 227.517V228.384H374.43V226.366H380.68C380.675 225.997 380.587 225.668 380.417 225.379C380.246 225.09 380.012 224.866 379.714 224.705C379.42 224.539 379.081 224.456 378.698 224.456C378.31 224.456 377.962 224.544 377.654 224.719C377.346 224.889 377.102 225.124 376.922 225.422C376.742 225.715 376.648 226.049 376.638 226.423V228.476C376.638 228.921 376.726 229.312 376.901 229.648C377.076 229.979 377.325 230.237 377.647 230.422C377.969 230.607 378.352 230.699 378.797 230.699C379.105 230.699 379.385 230.656 379.635 230.571C379.886 230.486 380.102 230.36 380.282 230.195C380.462 230.029 380.597 229.825 380.687 229.584L383.876 229.676C383.743 230.391 383.452 231.014 383.002 231.544C382.557 232.07 381.972 232.479 381.248 232.773C380.523 233.062 379.685 233.206 378.733 233.206ZM388.483 222.091L390.28 225.685L392.141 222.091H395.642L392.595 227.545L395.756 233H392.283L390.28 229.378L388.327 233H384.804L387.972 227.545L384.96 222.091H388.483ZM403.385 222.091V224.648H396.503V222.091H403.385ZM397.945 219.477H401.418V229.57C401.418 229.783 401.451 229.955 401.518 230.088C401.589 230.216 401.69 230.308 401.823 230.365C401.956 230.417 402.114 230.443 402.299 230.443C402.431 230.443 402.571 230.431 402.718 230.408C402.869 230.379 402.983 230.356 403.059 230.337L403.584 232.844C403.419 232.891 403.184 232.95 402.881 233.021C402.583 233.092 402.225 233.137 401.809 233.156C400.994 233.194 400.296 233.099 399.714 232.872C399.136 232.64 398.693 232.28 398.385 231.793C398.082 231.305 397.936 230.692 397.945 229.953V219.477Z" fill="#304852"/>
<rect x="330" y="264" width="102" height="43" rx="5" fill="#B9DBE6"/>
<path d="M370.898 298.298C369.236 298.298 367.762 298.014 366.477 297.446C365.198 296.871 364.19 296.079 363.451 295.07C362.713 294.062 362.336 292.901 362.322 291.587H367.627C367.649 292.062 367.801 292.485 368.085 292.854C368.369 293.217 368.757 293.501 369.247 293.707C369.737 293.913 370.294 294.016 370.919 294.016C371.544 294.016 372.095 293.906 372.57 293.685C373.053 293.458 373.43 293.149 373.7 292.759C373.97 292.361 374.101 291.906 374.094 291.395C374.101 290.884 373.955 290.429 373.657 290.031C373.359 289.634 372.936 289.325 372.389 289.104C371.85 288.884 371.21 288.774 370.472 288.774H368.352V285.024H370.472C371.118 285.024 371.686 284.918 372.176 284.705C372.673 284.491 373.061 284.193 373.338 283.81C373.615 283.419 373.749 282.972 373.742 282.467C373.749 281.977 373.632 281.548 373.391 281.178C373.156 280.802 372.826 280.511 372.4 280.305C371.981 280.099 371.494 279.996 370.941 279.996C370.358 279.996 369.829 280.099 369.353 280.305C368.884 280.511 368.512 280.802 368.235 281.178C367.958 281.555 367.812 281.991 367.798 282.489H362.759C362.773 281.189 363.135 280.045 363.845 279.058C364.556 278.064 365.521 277.286 366.743 276.725C367.972 276.164 369.371 275.884 370.941 275.884C372.503 275.884 373.877 276.157 375.063 276.704C376.249 277.251 377.173 277.996 377.833 278.941C378.494 279.879 378.824 280.94 378.824 282.126C378.831 283.355 378.43 284.367 377.62 285.163C376.818 285.958 375.784 286.448 374.52 286.633V286.803C376.21 287.002 377.485 287.549 378.345 288.444C379.211 289.339 379.641 290.457 379.634 291.8C379.634 293.064 379.261 294.186 378.515 295.166C377.776 296.139 376.747 296.906 375.426 297.467C374.112 298.021 372.602 298.298 370.898 298.298ZM390.908 298.298C389.246 298.298 387.772 298.014 386.487 297.446C385.208 296.871 384.2 296.079 383.461 295.07C382.722 294.062 382.346 292.901 382.332 291.587H387.637C387.658 292.062 387.811 292.485 388.095 292.854C388.379 293.217 388.766 293.501 389.256 293.707C389.746 293.913 390.304 294.016 390.929 294.016C391.554 294.016 392.104 293.906 392.58 293.685C393.063 293.458 393.44 293.149 393.71 292.759C393.979 292.361 394.111 291.906 394.104 291.395C394.111 290.884 393.965 290.429 393.667 290.031C393.369 289.634 392.946 289.325 392.399 289.104C391.859 288.884 391.22 288.774 390.482 288.774H388.362V285.024H390.482C391.128 285.024 391.696 284.918 392.186 284.705C392.683 284.491 393.07 284.193 393.347 283.81C393.624 283.419 393.759 282.972 393.752 282.467C393.759 281.977 393.642 281.548 393.401 281.178C393.166 280.802 392.836 280.511 392.41 280.305C391.991 280.099 391.504 279.996 390.95 279.996C390.368 279.996 389.839 280.099 389.363 280.305C388.894 280.511 388.521 280.802 388.244 281.178C387.967 281.555 387.822 281.991 387.808 282.489H382.768C382.783 281.189 383.145 280.045 383.855 279.058C384.565 278.064 385.531 277.286 386.753 276.725C387.982 276.164 389.381 275.884 390.95 275.884C392.513 275.884 393.887 276.157 395.073 276.704C396.259 277.251 397.183 277.996 397.843 278.941C398.504 279.879 398.834 280.94 398.834 282.126C398.841 283.355 398.44 284.367 397.63 285.163C396.827 285.958 395.794 286.448 394.53 286.633V286.803C396.22 287.002 397.495 287.549 398.354 288.444C399.221 289.339 399.651 290.457 399.643 291.8C399.643 293.064 399.271 294.186 398.525 295.166C397.786 296.139 396.756 296.906 395.435 297.467C394.121 298.021 392.612 298.298 390.908 298.298Z" fill="#304852"/>
<rect x="330" y="264" width="102" height="43" rx="5" fill="#B9DBE6"/>
<path d="M338.673 293V278.455H344.682C345.771 278.455 346.711 278.668 347.501 279.094C348.297 279.515 348.91 280.105 349.341 280.862C349.772 281.615 349.987 282.491 349.987 283.49C349.987 284.494 349.767 285.372 349.327 286.125C348.891 286.873 348.268 287.453 347.459 287.865C346.649 288.277 345.688 288.483 344.575 288.483H340.868V285.713H343.922C344.452 285.713 344.895 285.621 345.25 285.436C345.61 285.251 345.882 284.993 346.067 284.662C346.251 284.326 346.344 283.935 346.344 283.49C346.344 283.04 346.251 282.652 346.067 282.325C345.882 281.994 345.61 281.738 345.25 281.558C344.89 281.378 344.447 281.288 343.922 281.288H342.189V293H338.673ZM351.72 293V282.091H355.094V284.08H355.207C355.406 283.36 355.73 282.825 356.18 282.474C356.63 282.119 357.153 281.942 357.75 281.942C357.911 281.942 358.077 281.954 358.247 281.977C358.417 281.996 358.576 282.027 358.723 282.07V285.088C358.557 285.031 358.339 284.986 358.069 284.953C357.804 284.92 357.568 284.903 357.359 284.903C356.947 284.903 356.576 284.996 356.244 285.18C355.917 285.36 355.659 285.614 355.47 285.94C355.285 286.262 355.193 286.641 355.193 287.077V293H351.72ZM364.671 293.206C363.53 293.206 362.545 292.981 361.716 292.531C360.893 292.077 360.258 291.43 359.813 290.592C359.373 289.75 359.153 288.748 359.153 287.588C359.153 286.461 359.375 285.476 359.82 284.634C360.265 283.786 360.893 283.128 361.702 282.659C362.512 282.186 363.466 281.949 364.564 281.949C365.341 281.949 366.051 282.07 366.695 282.311C367.339 282.553 367.895 282.91 368.364 283.384C368.833 283.857 369.198 284.442 369.458 285.138C369.718 285.829 369.849 286.622 369.849 287.517V288.384H360.367V286.366H366.617C366.612 285.997 366.525 285.668 366.354 285.379C366.184 285.09 365.949 284.866 365.651 284.705C365.358 284.539 365.019 284.456 364.635 284.456C364.247 284.456 363.899 284.544 363.591 284.719C363.284 284.889 363.04 285.124 362.86 285.422C362.68 285.715 362.585 286.049 362.576 286.423V288.476C362.576 288.921 362.663 289.312 362.839 289.648C363.014 289.979 363.262 290.237 363.584 290.422C363.906 290.607 364.29 290.699 364.735 290.699C365.043 290.699 365.322 290.656 365.573 290.571C365.824 290.486 366.039 290.36 366.219 290.195C366.399 290.029 366.534 289.825 366.624 289.584L369.813 289.676C369.68 290.391 369.389 291.014 368.939 291.544C368.494 292.07 367.91 292.479 367.185 292.773C366.461 293.062 365.623 293.206 364.671 293.206ZM381.912 282.091L378.169 293H374.192L370.456 282.091H374.113L376.123 289.605H376.237L378.254 282.091H381.912ZM383.243 293V282.091H386.716V293H383.243ZM384.983 280.82C384.496 280.82 384.077 280.659 383.726 280.337C383.376 280.01 383.201 279.617 383.201 279.158C383.201 278.703 383.376 278.315 383.726 277.993C384.077 277.666 384.496 277.503 384.983 277.503C385.476 277.503 385.895 277.666 386.241 277.993C386.591 278.315 386.766 278.703 386.766 279.158C386.766 279.617 386.591 280.01 386.241 280.337C385.895 280.659 385.476 280.82 384.983 280.82ZM394.019 293.206C392.874 293.206 391.889 292.972 391.065 292.503C390.246 292.029 389.614 291.371 389.169 290.528C388.728 289.681 388.508 288.698 388.508 287.581C388.508 286.459 388.728 285.476 389.169 284.634C389.614 283.786 390.246 283.128 391.065 282.659C391.889 282.186 392.874 281.949 394.019 281.949C395.165 281.949 396.148 282.186 396.967 282.659C397.791 283.128 398.423 283.786 398.863 284.634C399.308 285.476 399.531 286.459 399.531 287.581C399.531 288.698 399.308 289.681 398.863 290.528C398.423 291.371 397.791 292.029 396.967 292.503C396.148 292.972 395.165 293.206 394.019 293.206ZM394.041 290.585C394.457 290.585 394.81 290.457 395.099 290.202C395.388 289.946 395.608 289.591 395.759 289.136C395.916 288.682 395.994 288.156 395.994 287.56C395.994 286.954 395.916 286.423 395.759 285.969C395.608 285.514 395.388 285.159 395.099 284.903C394.81 284.648 394.457 284.52 394.041 284.52C393.61 284.52 393.245 284.648 392.947 284.903C392.653 285.159 392.428 285.514 392.272 285.969C392.121 286.423 392.045 286.954 392.045 287.56C392.045 288.156 392.121 288.682 392.272 289.136C392.428 289.591 392.653 289.946 392.947 290.202C393.245 290.457 393.61 290.585 394.041 290.585ZM408.348 288.291V282.091H411.814V293H408.504V290.969H408.391C408.149 291.636 407.737 292.167 407.155 292.56C406.577 292.948 405.879 293.142 405.06 293.142C404.316 293.142 403.663 292.972 403.1 292.631C402.536 292.29 402.098 291.814 401.786 291.203C401.473 290.588 401.315 289.868 401.31 289.044V282.091H404.783V288.362C404.788 288.954 404.944 289.42 405.252 289.761C405.559 290.102 405.978 290.273 406.509 290.273C406.854 290.273 407.164 290.197 407.439 290.045C407.718 289.889 407.939 289.664 408.1 289.371C408.265 289.072 408.348 288.713 408.348 288.291ZM423.549 285.422L420.36 285.507C420.327 285.28 420.237 285.079 420.09 284.903C419.943 284.723 419.751 284.584 419.515 284.484C419.283 284.38 419.013 284.328 418.705 284.328C418.303 284.328 417.959 284.409 417.675 284.57C417.396 284.731 417.259 284.948 417.263 285.223C417.259 285.436 417.344 285.621 417.519 285.777C417.699 285.933 418.019 286.059 418.478 286.153L420.58 286.551C421.669 286.759 422.479 287.105 423.009 287.588C423.544 288.071 423.814 288.71 423.819 289.506C423.814 290.254 423.591 290.905 423.151 291.459C422.715 292.013 422.119 292.444 421.361 292.751C420.604 293.054 419.737 293.206 418.762 293.206C417.204 293.206 415.975 292.886 415.076 292.247C414.181 291.603 413.67 290.741 413.542 289.662L416.972 289.577C417.048 289.974 417.244 290.277 417.562 290.486C417.879 290.694 418.284 290.798 418.776 290.798C419.221 290.798 419.583 290.715 419.863 290.55C420.142 290.384 420.284 290.164 420.289 289.889C420.284 289.643 420.175 289.446 419.962 289.3C419.749 289.148 419.415 289.03 418.961 288.945L417.057 288.582C415.964 288.384 415.149 288.017 414.614 287.482C414.079 286.942 413.814 286.255 413.819 285.422C413.814 284.693 414.008 284.07 414.401 283.554C414.794 283.033 415.353 282.635 416.077 282.361C416.802 282.086 417.656 281.949 418.641 281.949C420.118 281.949 421.283 282.259 422.135 282.879C422.988 283.495 423.459 284.342 423.549 285.422Z" fill="#304852"/>
<path d="M380.903 112.298C379.241 112.298 377.767 112.014 376.482 111.446C375.203 110.871 374.195 110.079 373.456 109.07C372.717 108.062 372.341 106.901 372.327 105.587H377.632C377.653 106.062 377.806 106.485 378.09 106.854C378.374 107.217 378.761 107.501 379.252 107.707C379.742 107.913 380.299 108.016 380.924 108.016C381.549 108.016 382.1 107.906 382.575 107.685C383.058 107.458 383.435 107.149 383.705 106.759C383.975 106.361 384.106 105.906 384.099 105.395C384.106 104.884 383.96 104.429 383.662 104.031C383.364 103.634 382.941 103.325 382.394 103.104C381.854 102.884 381.215 102.774 380.477 102.774H378.357V99.0241H380.477C381.123 99.0241 381.691 98.9176 382.181 98.7045C382.678 98.4915 383.065 98.1932 383.342 97.8097C383.619 97.419 383.754 96.9716 383.747 96.4673C383.754 95.9773 383.637 95.5476 383.396 95.1783C383.161 94.8018 382.831 94.5107 382.405 94.3047C381.986 94.0987 381.499 93.9957 380.945 93.9957C380.363 93.9957 379.834 94.0987 379.358 94.3047C378.889 94.5107 378.516 94.8018 378.239 95.1783C377.962 95.5547 377.817 95.9915 377.803 96.4886H372.764C372.778 95.1889 373.14 94.0455 373.85 93.0582C374.56 92.0639 375.526 91.2862 376.748 90.7251C377.977 90.1641 379.376 89.8835 380.945 89.8835C382.508 89.8835 383.882 90.157 385.068 90.7038C386.254 91.2507 387.178 91.9964 387.838 92.9411C388.499 93.8786 388.829 94.9403 388.829 96.1264C388.836 97.3551 388.435 98.3672 387.625 99.1626C386.823 99.9581 385.789 100.448 384.525 100.633V100.803C386.215 101.002 387.49 101.549 388.35 102.444C389.216 103.339 389.646 104.457 389.639 105.8C389.639 107.064 389.266 108.186 388.52 109.166C387.781 110.139 386.752 110.906 385.43 111.467C384.117 112.021 382.607 112.298 380.903 112.298Z" fill="#304852" fill-opacity="0.509804"/>
<rect x="160.256" y="4.15514" width="164" height="284" rx="17" transform="rotate(33.343 160.256 4.15514)" fill="#5F818A" stroke="#B9DBE6" stroke-width="6"/>
<rect x="133.936" y="100.557" width="102" height="43" rx="5" transform="rotate(33.343 133.936 100.557)" fill="#B9DBE6"/>
<path d="M153.217 151.786C152.292 151.177 151.575 150.479 151.067 149.691C150.566 148.902 150.295 148.092 150.253 147.26C150.211 146.427 150.427 145.643 150.9 144.906L153.855 146.85C153.693 147.122 153.623 147.414 153.646 147.724C153.671 148.029 153.783 148.329 153.98 148.624C154.177 148.918 154.45 149.18 154.798 149.409C155.146 149.638 155.493 149.778 155.839 149.83C156.191 149.88 156.514 149.846 156.808 149.727C157.104 149.605 157.343 149.4 157.527 149.112C157.718 148.83 157.804 148.524 157.783 148.193C157.763 147.862 157.641 147.535 157.417 147.212C157.197 146.892 156.881 146.596 156.47 146.326L155.289 145.549L156.663 143.46L157.844 144.237C158.204 144.474 158.559 144.623 158.91 144.684C159.265 144.747 159.59 144.723 159.885 144.611C160.182 144.495 160.422 144.295 160.602 144.012C160.786 143.741 160.878 143.459 160.879 143.165C160.886 142.869 160.809 142.586 160.647 142.315C160.489 142.047 160.256 141.811 159.948 141.608C159.623 141.395 159.291 141.258 158.95 141.199C158.614 141.142 158.299 141.167 158.007 141.275C157.715 141.384 157.474 141.573 157.284 141.845L154.477 139.999C154.962 139.28 155.582 138.776 156.34 138.486C157.099 138.193 157.922 138.114 158.808 138.249C159.698 138.387 160.58 138.743 161.454 139.318C162.325 139.891 162.99 140.547 163.45 141.286C163.91 142.025 164.151 142.779 164.173 143.547C164.197 144.311 163.992 145.023 163.557 145.684C163.111 146.371 162.517 146.787 161.774 146.934C161.036 147.083 160.281 146.977 159.509 146.616L159.447 146.711C160.315 147.442 160.825 148.213 160.975 149.027C161.13 149.842 160.96 150.623 160.464 151.368C160 152.072 159.382 152.56 158.607 152.833C157.839 153.104 156.985 153.154 156.043 152.982C155.109 152.809 154.166 152.411 153.217 151.786ZM164.361 159.118C163.436 158.509 162.719 157.811 162.211 157.024C161.71 156.235 161.439 155.424 161.397 154.592C161.355 153.759 161.571 152.975 162.044 152.238L164.999 154.182C164.837 154.455 164.767 154.746 164.79 155.056C164.815 155.362 164.927 155.662 165.124 155.956C165.322 156.25 165.594 156.512 165.942 156.741C166.29 156.97 166.637 157.11 166.983 157.162C167.335 157.212 167.658 157.178 167.952 157.06C168.248 156.937 168.487 156.732 168.671 156.445C168.862 156.162 168.948 155.856 168.927 155.525C168.907 155.194 168.785 154.867 168.561 154.544C168.341 154.224 168.025 153.928 167.614 153.658L166.433 152.881L167.807 150.792L168.988 151.569C169.348 151.806 169.703 151.955 170.054 152.016C170.409 152.079 170.734 152.055 171.029 151.943C171.326 151.827 171.566 151.627 171.746 151.344C171.93 151.073 172.022 150.791 172.023 150.497C172.03 150.202 171.953 149.918 171.791 149.648C171.633 149.379 171.4 149.144 171.092 148.941C170.767 148.727 170.435 148.591 170.094 148.531C169.758 148.474 169.443 148.5 169.151 148.608C168.859 148.716 168.618 148.906 168.428 149.177L165.621 147.331C166.106 146.612 166.726 146.108 167.484 145.819C168.244 145.525 169.066 145.446 169.952 145.581C170.842 145.719 171.724 146.075 172.598 146.65C173.469 147.223 174.134 147.879 174.594 148.618C175.054 149.357 175.295 150.111 175.317 150.879C175.341 151.643 175.136 152.355 174.701 153.016C174.255 153.703 173.661 154.12 172.918 154.266C172.18 154.415 171.425 154.309 170.653 153.949L170.591 154.044C171.459 154.774 171.969 155.545 172.119 156.359C172.274 157.175 172.104 157.955 171.608 158.7C171.144 159.404 170.526 159.892 169.751 160.165C168.983 160.436 168.129 160.486 167.187 160.315C166.253 160.142 165.311 159.743 164.361 159.118Z" fill="#304852"/>
<rect x="100.957" y="150.68" width="102" height="43" rx="5" transform="rotate(33.343 100.957 150.68)" fill="#B9DBE6"/>
<path d="M116.271 201.813C114.883 200.899 113.808 199.852 113.046 198.671C112.294 197.487 111.887 196.271 111.824 195.023C111.762 193.774 112.086 192.597 112.796 191.492L117.228 194.408C116.984 194.817 116.879 195.254 116.914 195.719C116.952 196.178 117.119 196.628 117.415 197.069C117.712 197.511 118.121 197.903 118.643 198.247C119.165 198.59 119.685 198.801 120.204 198.878C120.732 198.954 121.217 198.903 121.657 198.725C122.101 198.541 122.46 198.233 122.736 197.802C123.023 197.379 123.151 196.919 123.12 196.423C123.09 195.927 122.906 195.436 122.571 194.952C122.241 194.471 121.767 194.028 121.15 193.622L119.379 192.457L121.44 189.324L123.211 190.489C123.751 190.845 124.284 191.068 124.811 191.159C125.343 191.254 125.831 191.218 126.273 191.05C126.719 190.876 127.078 190.576 127.349 190.151C127.624 189.746 127.762 189.322 127.764 188.881C127.775 188.438 127.659 188.013 127.416 187.607C127.179 187.204 126.83 186.851 126.367 186.546C125.88 186.226 125.382 186.021 124.871 185.932C124.366 185.846 123.895 185.885 123.456 186.047C123.018 186.209 122.656 186.494 122.371 186.901L118.161 184.132C118.888 183.054 119.819 182.297 120.955 181.863C122.095 181.423 123.329 181.304 124.658 181.507C125.993 181.713 127.316 182.248 128.627 183.111C129.932 183.97 130.93 184.954 131.62 186.062C132.311 187.171 132.672 188.302 132.705 189.454C132.741 190.6 132.433 191.669 131.781 192.659C131.112 193.69 130.221 194.315 129.107 194.534C127.999 194.757 126.867 194.599 125.709 194.058L125.615 194.201C126.918 195.296 127.683 196.453 127.909 197.673C128.141 198.897 127.885 200.068 127.141 201.185C126.446 202.242 125.518 202.974 124.356 203.383C123.204 203.79 121.922 203.864 120.51 203.607C119.108 203.348 117.695 202.75 116.271 201.813ZM132.987 212.811C131.599 211.898 130.524 210.85 129.762 209.669C129.01 208.486 128.603 207.27 128.54 206.021C128.478 204.773 128.802 203.596 129.512 202.49L133.944 205.406C133.7 205.816 133.596 206.253 133.63 206.717C133.668 207.176 133.835 207.626 134.131 208.068C134.428 208.509 134.837 208.901 135.359 209.245C135.881 209.589 136.401 209.799 136.92 209.877C137.448 209.952 137.933 209.901 138.373 209.723C138.817 209.539 139.176 209.232 139.452 208.801C139.739 208.377 139.867 207.918 139.836 207.421C139.806 206.925 139.622 206.435 139.287 205.95C138.957 205.47 138.483 205.026 137.866 204.62L136.095 203.455L138.156 200.322L139.927 201.488C140.467 201.843 141 202.066 141.527 202.158C142.059 202.253 142.547 202.216 142.989 202.048C143.435 201.874 143.794 201.575 144.065 201.149C144.34 200.744 144.479 200.321 144.48 199.879C144.491 199.436 144.375 199.011 144.132 198.605C143.895 198.203 143.546 197.849 143.083 197.545C142.596 197.224 142.098 197.02 141.587 196.93C141.082 196.845 140.611 196.883 140.172 197.045C139.734 197.207 139.372 197.492 139.087 197.9L134.878 195.13C135.604 194.052 136.535 193.296 137.671 192.862C138.811 192.421 140.045 192.302 141.374 192.505C142.709 192.712 144.032 193.247 145.343 194.109C146.648 194.968 147.646 195.952 148.336 197.061C149.027 198.169 149.388 199.3 149.421 200.452C149.457 201.598 149.149 202.667 148.498 203.658C147.828 204.688 146.937 205.313 145.823 205.532C144.715 205.756 143.583 205.597 142.425 205.057L142.331 205.199C143.634 206.294 144.399 207.452 144.625 208.672C144.857 209.896 144.601 211.066 143.857 212.184C143.162 213.24 142.234 213.972 141.072 214.381C139.92 214.788 138.638 214.863 137.226 214.605C135.824 214.346 134.411 213.748 132.987 212.811Z" fill="#304852"/>
<rect x="100.957" y="150.68" width="102" height="43" rx="5" transform="rotate(33.343 100.957 150.68)" fill="#B9DBE6"/>
<path d="M127.617 185.524L119.622 197.675L117.13 196.036L116.909 185.841L116.832 185.79L112.218 192.803L109.281 190.871L117.276 178.72L119.803 180.383L119.979 190.531L120.08 190.597L124.686 183.596L127.617 185.524ZM125.616 201.865C124.663 201.238 123.964 200.509 123.519 199.678C123.08 198.845 122.905 197.957 122.994 197.012C123.09 196.066 123.456 195.108 124.094 194.139C124.713 193.198 125.44 192.497 126.275 192.038C127.113 191.574 127.999 191.369 128.933 191.423C129.87 191.472 130.797 191.799 131.714 192.403C132.363 192.829 132.89 193.321 133.295 193.876C133.7 194.432 133.969 195.037 134.1 195.69C134.231 196.343 134.215 197.032 134.05 197.756C133.887 198.477 133.56 199.211 133.068 199.959L132.592 200.683L124.671 195.471L125.78 193.786L131.001 197.221C131.2 196.91 131.308 196.587 131.324 196.252C131.34 195.917 131.268 195.6 131.108 195.302C130.953 195.002 130.716 194.747 130.396 194.536C130.071 194.323 129.732 194.205 129.379 194.182C129.028 194.155 128.696 194.217 128.381 194.367C128.07 194.513 127.807 194.74 127.594 195.048L126.466 196.762C126.221 197.134 126.079 197.509 126.041 197.886C126.005 198.259 126.071 198.611 126.238 198.942C126.406 199.274 126.676 199.561 127.047 199.806C127.304 199.975 127.561 200.093 127.818 200.16C128.074 200.227 128.323 200.24 128.565 200.201C128.806 200.161 129.031 200.065 129.238 199.913L131.852 201.743C131.348 202.267 130.763 202.627 130.095 202.823C129.435 203.018 128.721 203.038 127.954 202.885C127.19 202.728 126.411 202.388 125.616 201.865ZM139.87 197.939L139.396 201.929L142.926 199.949L145.851 201.874L140.307 204.756L139.95 211.05L137.048 209.141L137.366 205.014L133.743 206.966L130.801 205.03L136.445 202.214L136.927 196.003L139.87 197.939ZM152.319 206.13L150.914 208.266L145.165 204.483L146.57 202.347L152.319 206.13ZM149.211 200.956L152.113 202.865L146.565 211.296C146.448 211.474 146.381 211.637 146.363 211.784C146.352 211.93 146.387 212.063 146.466 212.183C146.548 212.3 146.667 212.409 146.821 212.51C146.932 212.583 147.055 212.65 147.19 212.711C147.333 212.77 147.441 212.813 147.514 212.839L146.575 215.222C146.411 215.171 146.182 215.091 145.89 214.984C145.602 214.879 145.279 214.72 144.92 214.507C144.219 214.091 143.688 213.628 143.326 213.118C142.971 212.607 142.799 212.063 142.81 211.486C142.825 210.912 143.039 210.32 143.453 209.708L149.211 200.956Z" fill="#304852"/>
<rect x="67.9783" y="200.804" width="102" height="43" rx="5" transform="rotate(33.343 67.9783 200.804)" fill="#B9DBE6"/>
<path d="M83.2921 251.936C81.9037 251.023 80.8287 249.975 80.0671 248.794C79.3153 247.611 78.9081 246.395 78.8454 245.147C78.7827 243.898 79.1065 242.721 79.8168 241.616L84.2489 244.532C84.0051 244.941 83.9004 245.378 83.9348 245.843C83.973 246.301 84.1402 246.751 84.4364 247.193C84.7326 247.634 85.1417 248.027 85.6639 248.37C86.186 248.714 86.7063 248.924 87.2248 249.002C87.7532 249.078 88.2375 249.026 88.6777 248.848C89.1217 248.665 89.4813 248.357 89.7565 247.926C90.0435 247.503 90.1717 247.043 90.1411 246.547C90.1105 246.05 89.9273 245.56 89.5915 245.076C89.2616 244.595 88.7881 244.152 88.171 243.746L86.4 242.58L88.4612 239.448L90.2322 240.613C90.7722 240.968 91.3054 241.191 91.8319 241.283C92.3643 241.378 92.8516 241.342 93.2938 241.174C93.7399 240.999 94.0986 240.7 94.3698 240.275C94.6451 239.869 94.7834 239.446 94.7847 239.005C94.7958 238.561 94.6799 238.137 94.4371 237.73C94.2003 237.328 93.8505 236.974 93.3877 236.67C92.9012 236.35 92.4025 236.145 91.8918 236.055C91.387 235.97 90.9155 236.008 90.4772 236.17C90.0389 236.333 89.6772 236.618 89.392 237.025L85.1824 234.255C85.9087 233.177 86.8398 232.421 87.9757 231.987C89.1156 231.547 90.3499 231.428 91.6789 231.631C93.0137 231.837 94.3367 232.372 95.648 233.235C96.9533 234.093 97.9511 235.077 98.6413 236.186C99.3316 237.295 99.693 238.425 99.7256 239.577C99.7621 240.724 99.4543 241.792 98.8024 242.783C98.133 243.813 97.2415 244.438 96.1279 244.658C95.0202 244.881 93.8876 244.723 92.73 244.182L92.6363 244.324C93.9391 245.42 94.7035 246.577 94.9295 247.797C95.1615 249.021 94.9056 250.192 94.1619 251.309C93.467 252.365 92.5387 253.098 91.377 253.507C90.2251 253.913 88.9432 253.988 87.5312 253.731C86.1291 253.471 84.716 252.873 83.2921 251.936ZM100.008 262.935C98.6198 262.021 97.5448 260.974 96.7832 259.793C96.0314 258.609 95.6241 257.393 95.5614 256.145C95.4987 254.896 95.8225 253.719 96.5329 252.614L100.965 255.53C100.721 255.939 100.616 256.376 100.651 256.841C100.689 257.3 100.856 257.75 101.152 258.191C101.449 258.633 101.858 259.025 102.38 259.369C102.902 259.712 103.422 259.923 103.941 260C104.469 260.076 104.954 260.025 105.394 259.847C105.838 259.663 106.197 259.355 106.473 258.924C106.76 258.501 106.888 258.041 106.857 257.545C106.827 257.049 106.643 256.558 106.308 256.074C105.978 255.593 105.504 255.15 104.887 254.744L103.116 253.579L105.177 250.446L106.948 251.611C107.488 251.967 108.021 252.19 108.548 252.281C109.08 252.377 109.568 252.34 110.01 252.172C110.456 251.998 110.815 251.698 111.086 251.273C111.361 250.868 111.499 250.444 111.501 250.003C111.512 249.56 111.396 249.135 111.153 248.729C110.916 248.326 110.567 247.973 110.104 247.668C109.617 247.348 109.119 247.143 108.608 247.054C108.103 246.968 107.632 247.007 107.193 247.169C106.755 247.331 106.393 247.616 106.108 248.023L101.898 245.254C102.625 244.176 103.556 243.42 104.692 242.985C105.832 242.545 107.066 242.426 108.395 242.629C109.73 242.836 111.053 243.37 112.364 244.233C113.669 245.092 114.667 246.076 115.357 247.184C116.048 248.293 116.409 249.424 116.442 250.576C116.478 251.722 116.17 252.791 115.518 253.781C114.849 254.812 113.958 255.437 112.844 255.656C111.736 255.88 110.604 255.721 109.446 255.18L109.352 255.323C110.655 256.418 111.42 257.576 111.646 258.795C111.878 260.019 111.622 261.19 110.878 262.307C110.183 263.364 109.255 264.096 108.093 264.505C106.941 264.912 105.659 264.987 104.247 264.729C102.845 264.47 101.432 263.872 100.008 262.935Z" fill="#304852"/>
<rect x="67.9783" y="200.804" width="102" height="43" rx="5" transform="rotate(33.343 67.9783 200.804)" fill="#B9DBE6"/>
<path d="M59.2839 229.798L67.2788 217.647L72.2983 220.949C73.2081 221.548 73.8761 222.242 74.3024 223.033C74.7353 223.822 74.9236 224.652 74.8671 225.521C74.8133 226.387 74.5118 227.237 73.9626 228.072C73.4109 228.911 72.7442 229.523 71.9625 229.91C71.1874 230.296 70.3485 230.438 69.4457 230.337C68.5429 230.236 67.6267 229.88 66.6972 229.268L63.6001 227.231L65.1225 224.917L67.6738 226.595C68.1168 226.887 68.5374 227.053 68.9356 227.094C69.3377 227.137 69.7069 227.071 70.0434 226.896C70.3824 226.717 70.6743 226.441 70.9189 226.069C71.1661 225.694 71.3024 225.318 71.3277 224.944C71.3556 224.566 71.2687 224.202 71.067 223.854C70.8653 223.506 70.5449 223.188 70.1058 222.899L68.6581 221.946L62.2208 231.73L59.2839 229.798ZM70.1832 236.969L76.1794 227.856L78.9976 229.71L77.9046 231.371L77.9995 231.434C78.5612 230.942 79.1263 230.673 79.6946 230.628C80.2656 230.578 80.8003 230.717 81.2986 231.045C81.4331 231.134 81.5651 231.235 81.6944 231.348C81.8264 231.458 81.942 231.571 82.0412 231.687L80.3821 234.209C80.2749 234.07 80.1177 233.913 79.9104 233.737C79.7071 233.563 79.5185 233.419 79.3444 233.305C79.0003 233.078 78.6391 232.951 78.2607 232.923C77.8889 232.894 77.5341 232.964 77.1963 233.133C76.865 233.3 76.5797 233.566 76.3403 233.93L73.0845 238.878L70.1832 236.969ZM80.8892 244.26C79.9359 243.632 79.2368 242.903 78.7918 242.072C78.3534 241.239 78.1786 240.351 78.2674 239.406C78.3628 238.46 78.7293 237.502 79.367 236.533C79.9864 235.592 80.7136 234.891 81.5486 234.432C82.3863 233.969 83.2722 233.764 84.2062 233.817C85.1428 233.867 86.07 234.193 86.9876 234.797C87.6363 235.224 88.1633 235.715 88.5685 236.271C88.9737 236.826 89.242 237.431 89.3733 238.084C89.5047 238.737 89.4878 239.426 89.3228 240.151C89.1604 240.871 88.8333 241.605 88.3414 242.353L87.8651 243.077L79.9443 237.865L81.053 236.18L86.2742 239.616C86.4732 239.304 86.5809 238.981 86.5973 238.646C86.6136 238.311 86.5415 237.995 86.3808 237.696C86.2266 237.396 85.9893 237.141 85.6689 236.93C85.3446 236.717 85.0057 236.599 84.6523 236.576C84.3015 236.549 83.969 236.611 83.6547 236.761C83.3431 236.908 83.0805 237.135 82.867 237.442L81.7388 239.156C81.4941 239.528 81.3526 239.903 81.3142 240.28C81.2784 240.653 81.3442 241.005 81.5117 241.337C81.6791 241.668 81.9488 241.956 82.3206 242.2C82.5777 242.369 82.8345 242.487 83.091 242.554C83.3475 242.621 83.5964 242.634 83.8378 242.595C84.0792 242.555 84.3038 242.459 84.5117 242.307L87.125 244.137C86.6212 244.662 86.0358 245.022 85.3685 245.217C84.7078 245.412 83.9942 245.433 83.2277 245.28C82.4637 245.123 81.6842 244.783 80.8892 244.26ZM101.401 244.451L92.2784 251.507L88.9558 249.321L91.8312 238.154L94.8868 240.164L92.4357 247.546L92.5306 247.609L98.3458 242.44L101.401 244.451ZM96.5177 254.296L102.514 245.182L105.415 247.091L99.419 256.205L96.5177 254.296ZM104.666 245.077C104.259 244.809 103.997 244.444 103.882 243.982C103.768 243.517 103.838 243.092 104.091 242.709C104.34 242.329 104.7 242.101 105.17 242.024C105.642 241.944 106.082 242.038 106.489 242.306C106.901 242.577 107.161 242.944 107.27 243.406C107.386 243.868 107.319 244.289 107.069 244.668C106.817 245.052 106.454 245.284 105.982 245.364C105.516 245.443 105.078 245.348 104.666 245.077ZM105.407 260.391C104.449 259.761 103.756 259.024 103.325 258.18C102.901 257.334 102.735 256.437 102.826 255.488C102.924 254.538 103.28 253.596 103.894 252.663C104.511 251.725 105.235 251.025 106.066 250.563C106.904 250.1 107.794 249.898 108.736 249.956C109.684 250.013 110.637 250.357 111.594 250.987C112.551 251.617 113.242 252.354 113.666 253.2C114.097 254.045 114.263 254.942 114.165 255.892C114.073 256.841 113.719 257.784 113.103 258.721C112.488 259.655 111.762 260.353 110.925 260.817C110.094 261.279 109.204 261.481 108.255 261.424C107.313 261.365 106.364 261.021 105.407 260.391ZM106.865 258.213C107.213 258.442 107.578 258.529 107.96 258.475C108.342 258.42 108.721 258.244 109.097 257.948C109.478 257.654 109.832 257.258 110.16 256.759C110.493 256.253 110.719 255.767 110.838 255.301C110.961 254.838 110.973 254.421 110.872 254.048C110.771 253.676 110.547 253.375 110.199 253.146C109.839 252.91 109.464 252.816 109.074 252.866C108.688 252.918 108.305 253.091 107.925 253.385C107.549 253.681 107.194 254.083 106.861 254.589C106.533 255.087 106.307 255.568 106.184 256.031C106.065 256.497 106.057 256.917 106.162 257.292C106.271 257.669 106.505 257.976 106.865 258.213ZM120.078 264.161L123.486 258.981L126.382 260.886L120.385 270L117.621 268.181L118.737 266.484L118.642 266.421C118.073 266.846 117.438 267.063 116.735 267.071C116.039 267.078 115.349 266.856 114.665 266.406C114.044 265.997 113.592 265.496 113.308 264.901C113.025 264.307 112.921 263.669 112.995 262.987C113.073 262.301 113.336 261.612 113.785 260.921L117.606 255.113L120.508 257.022L117.061 262.261C116.739 262.758 116.614 263.233 116.683 263.687C116.753 264.141 117.009 264.514 117.452 264.805C117.741 264.995 118.042 265.102 118.355 265.127C118.674 265.15 118.981 265.083 119.277 264.926C119.58 264.768 119.847 264.513 120.078 264.161ZM134.354 270.119L131.643 268.437C131.74 268.229 131.776 268.012 131.749 267.785C131.726 267.554 131.642 267.332 131.499 267.119C131.363 266.904 131.166 266.712 130.909 266.543C130.572 266.322 130.241 266.2 129.916 266.179C129.594 266.16 129.359 266.266 129.212 266.498C129.091 266.673 129.061 266.875 129.121 267.101C129.186 267.331 129.384 267.611 129.716 267.943L131.253 269.431C132.048 270.203 132.535 270.937 132.712 271.632C132.894 272.33 132.768 273.012 132.335 273.679C131.92 274.301 131.376 274.723 130.703 274.944C130.035 275.167 129.3 275.199 128.498 275.04C127.698 274.877 126.891 274.527 126.076 273.991C124.775 273.134 123.924 272.192 123.524 271.164C123.13 270.134 123.177 269.133 123.664 268.161L126.576 269.975C126.421 270.349 126.418 270.71 126.569 271.059C126.719 271.407 127 271.716 127.412 271.987C127.783 272.232 128.132 272.362 128.456 272.377C128.781 272.392 129.02 272.286 129.175 272.059C129.307 271.851 129.324 271.627 129.226 271.387C129.131 271.143 128.918 270.861 128.585 270.54L127.194 269.191C126.389 268.424 125.911 267.67 125.758 266.929C125.608 266.184 125.763 265.464 126.225 264.771C126.622 264.159 127.127 263.746 127.739 263.531C128.353 263.311 129.039 263.286 129.795 263.455C130.551 263.624 131.34 263.979 132.163 264.52C133.397 265.332 134.2 266.231 134.571 267.218C134.944 268.201 134.872 269.168 134.354 270.119Z" fill="#304852"/>
<path d="M193.885 102.052C192.497 101.139 191.422 100.091 190.66 98.91C189.908 97.7268 189.501 96.5109 189.438 95.2624C189.376 94.0139 189.7 92.8369 190.41 91.7314L194.842 94.6475C194.598 95.0568 194.493 95.4937 194.528 95.9584C194.566 96.4172 194.733 96.8672 195.029 97.3087C195.326 97.7501 195.735 98.1426 196.257 98.4861C196.779 98.8296 197.299 99.0402 197.818 99.1178C198.346 99.1934 198.831 99.1422 199.271 98.9642C199.715 98.7803 200.074 98.4728 200.35 98.0417C200.637 97.6184 200.765 97.1587 200.734 96.6625C200.704 96.1663 200.52 95.6759 200.185 95.1914C199.855 94.7108 199.381 94.2675 198.764 93.8615L196.993 92.6962L199.054 89.5635L200.825 90.7287C201.365 91.084 201.898 91.3073 202.425 91.3986C202.957 91.4939 203.445 91.4575 203.887 91.2893C204.333 91.1152 204.692 90.8156 204.963 90.3905C205.238 89.985 205.376 89.5616 205.378 89.1203C205.389 88.6771 205.273 88.2523 205.03 87.846C204.793 87.4436 204.444 87.0902 203.981 86.7857C203.494 86.4656 202.996 86.2608 202.485 86.1713C201.98 86.0857 201.508 86.124 201.07 86.2862C200.632 86.4484 200.27 86.7333 199.985 87.1408L195.775 84.3711C196.502 83.2931 197.433 82.537 198.569 82.1026C199.709 81.6624 200.943 81.5436 202.272 81.7463C203.607 81.9529 204.93 82.4876 206.241 83.3503C207.546 84.2092 208.544 85.193 209.234 86.3018C209.925 87.4106 210.286 88.541 210.319 89.6932C210.355 90.8394 210.047 91.908 209.395 92.8988C208.726 93.9292 207.835 94.5541 206.721 94.7736C205.613 94.997 204.481 94.8384 203.323 94.2977L203.229 94.4401C204.532 95.5354 205.297 96.693 205.523 97.9129C205.755 99.1367 205.499 100.307 204.755 101.425C204.06 102.481 203.132 103.213 201.97 103.622C200.818 104.029 199.536 104.104 198.124 103.847C196.722 103.587 195.309 102.989 193.885 102.052Z" fill="#304852" fill-opacity="0.509804"/>
<rect x="219" y="298" width="67" height="40" rx="10" fill="#B9DBE6"/>
<path d="M245.18 307.818V326H241.452L234.216 315.506H234.101V326H229.706V307.818H233.488L240.644 318.294H240.795V307.818H245.18ZM256.741 320.114V312.364H261.074V326H256.937V323.461H256.795C256.493 324.295 255.978 324.958 255.25 325.45C254.528 325.935 253.655 326.178 252.631 326.178C251.702 326.178 250.885 325.964 250.181 325.538C249.476 325.112 248.929 324.517 248.538 323.754C248.148 322.984 247.949 322.085 247.943 321.055V312.364H252.285V320.203C252.291 320.943 252.486 321.526 252.871 321.952C253.255 322.378 253.779 322.591 254.442 322.591C254.874 322.591 255.262 322.496 255.605 322.307C255.954 322.112 256.229 321.83 256.431 321.463C256.638 321.091 256.741 320.641 256.741 320.114ZM268.178 307.818V326H263.837V307.818H268.178ZM275.283 307.818V326H270.941V307.818H275.283Z" fill="#304852"/>
<rect x="487.186" y="260" width="67" height="40" rx="10" transform="rotate(39.0244 487.186 260)" fill="#B9DBE6"/>
<path d="M501.343 284.112L489.895 298.237L486.998 295.889L487.984 283.181L487.895 283.108L481.287 291.261L477.873 288.494L489.321 274.369L492.26 276.75L491.222 289.394L491.34 289.489L497.936 281.351L501.343 284.112ZM502.582 300.944L507.462 294.923L510.828 297.651L502.242 308.244L499.028 305.639L500.627 303.667L500.516 303.577C499.756 304.036 498.939 304.227 498.064 304.15C497.198 304.072 496.367 303.711 495.571 303.066C494.849 302.481 494.349 301.801 494.07 301.027C493.791 300.252 493.74 299.446 493.918 298.606C494.099 297.763 494.511 296.939 495.155 296.135L500.628 289.383L504 292.117L499.064 298.207C498.603 298.785 498.388 299.361 498.418 299.934C498.449 300.508 498.722 301.003 499.236 301.42C499.572 301.692 499.933 301.863 500.319 301.932C500.713 302 501.104 301.955 501.491 301.796C501.887 301.637 502.251 301.353 502.582 300.944ZM519.21 298.593L507.761 312.718L504.389 309.984L515.837 295.859L519.21 298.593ZM524.729 303.066L513.281 317.191L509.908 314.458L521.356 300.333L524.729 303.066Z" fill="#304852"/>
<rect x="241" y="52.1755" width="67" height="40" rx="10" transform="rotate(-45.975 241 52.1755)" fill="#B9DBE6"/>
<path d="M266.254 40.1743L279.328 52.8101L276.736 55.4912L264.162 53.401L264.082 53.484L271.628 60.7767L268.574 63.9366L255.5 51.3007L258.128 48.5814L270.634 50.7167L270.739 50.6082L263.206 43.3277L266.254 40.1743ZM283.13 40.4066L277.557 35.0203L280.568 31.9052L290.373 41.3821L287.498 44.3568L285.672 42.5922L285.574 42.6944C285.964 43.4914 286.083 44.3223 285.93 45.1871C285.777 46.0436 285.345 46.84 284.633 47.5762C283.987 48.2443 283.267 48.6835 282.471 48.8938C281.675 49.1041 280.867 49.0843 280.046 48.8346C279.222 48.5808 278.437 48.0981 277.692 47.3867L271.443 41.3464L274.46 38.2249L280.097 43.6728C280.633 44.1827 281.188 44.4475 281.761 44.467C282.335 44.4865 282.852 44.258 283.313 43.7813C283.613 43.4707 283.815 43.1261 283.917 42.7477C284.019 42.3608 284.008 41.9676 283.884 41.5679C283.76 41.1598 283.509 40.7727 283.13 40.4066ZM282.237 23.6378L295.311 36.2737L292.293 39.3952L279.22 26.7594L282.237 23.6378ZM287.175 18.5295L300.248 31.1653L297.231 34.2868L284.157 21.651L287.175 18.5295Z" fill="#304852"/>
<rect x="398" y="6" width="67" height="40" rx="10" fill="#B9DBE6"/>
<path d="M424.18 15.8182V34H420.452L413.216 23.5064H413.101V34H408.706V15.8182H412.488L419.644 26.294H419.795V15.8182H424.18ZM435.741 28.114V20.3636H440.074V34H435.937V31.4609H435.795C435.493 32.2955 434.978 32.9583 434.25 33.4496C433.528 33.9349 432.655 34.1776 431.631 34.1776C430.702 34.1776 429.885 33.9645 429.181 33.5384C428.476 33.1122 427.929 32.5174 427.538 31.7539C427.148 30.9845 426.949 30.0849 426.943 29.055V20.3636H431.285V28.2028C431.291 28.9426 431.486 29.5256 431.871 29.9517C432.255 30.3778 432.779 30.5909 433.442 30.5909C433.874 30.5909 434.262 30.4962 434.605 30.3068C434.954 30.1115 435.229 29.8304 435.431 29.4634C435.638 29.0906 435.741 28.6407 435.741 28.114ZM447.178 15.8182V34H442.837V15.8182H447.178ZM454.283 15.8182V34H449.941V15.8182H454.283Z" fill="#304852"/>
<rect x="225" y="275.754" width="67" height="40" rx="10" transform="rotate(-45.459 225 275.754)" fill="#B9DBE6"/>
<path d="M250.361 263.981L263.32 276.734L260.705 279.392L248.151 277.188L248.07 277.271L255.549 284.631L252.466 287.763L239.507 275.01L242.16 272.314L254.646 274.562L254.752 274.455L247.285 267.107L250.361 263.981ZM267.234 264.365L261.71 258.929L264.749 255.841L274.468 265.406L271.567 268.355L269.757 266.574L269.657 266.675C270.04 267.475 270.152 268.307 269.991 269.171C269.83 270.026 269.391 270.818 268.673 271.548C268.021 272.21 267.296 272.643 266.499 272.846C265.701 273.049 264.893 273.022 264.075 272.765C263.252 272.504 262.472 272.014 261.734 271.296L255.539 265.2L258.584 262.105L264.172 267.604C264.703 268.119 265.256 268.388 265.829 268.413C266.403 268.438 266.922 268.214 267.387 267.741C267.69 267.433 267.894 267.091 268 266.713C268.106 266.327 268.099 265.934 267.978 265.533C267.858 265.124 267.61 264.735 267.234 264.365ZM266.492 247.589L279.452 260.342L276.407 263.436L263.447 250.683L266.492 247.589ZM271.476 242.525L284.435 255.278L281.39 258.373L268.431 245.62L271.476 242.525Z" fill="#304852"/>
</svg>
