<svg width="9067" height="4891" viewBox="0 0 9067 4891" fill="none" xmlns="http://www.w3.org/2000/svg">
<line x1="6078.66" y1="813.712" x2="6798.66" y2="1809.71" stroke="#E5F1E3" stroke-width="30"/>
<path d="M4537.77 769.622C3797.33 1179.67 3382.2 1409.57 2641.77 1819.62" stroke="#E5F1E3" stroke-width="30"/>
<path d="M2064.5 2466.5C1609.93 3045.26 1355.07 3369.74 900.5 3948.5" stroke="#E5F1E3" stroke-width="30"/>
<path d="M6342.5 2838.5C6145.68 3332.9 6035.32 3610.1 5838.5 4104.5" stroke="#E5F1E3" stroke-width="30"/>
<path d="M5637.5 378.5C5637.5 580.046 5486.04 741.5 5301.5 741.5C5116.96 741.5 4965.5 580.046 4965.5 378.5C4965.5 176.954 5116.96 15.5 5301.5 15.5C5486.04 15.5 5637.5 176.954 5637.5 378.5Z" fill="#529471" stroke="#E5F1E3" stroke-width="30"/>
<path d="M5220.68 462.886C5207.39 462.886 5195.6 460.614 5185.31 456.068C5175.09 451.466 5167.02 445.131 5161.11 437.062C5155.2 428.994 5152.19 419.705 5152.08 409.193H5194.52C5194.69 413 5195.91 416.381 5198.18 419.335C5200.46 422.233 5203.55 424.506 5207.47 426.153C5211.39 427.801 5215.85 428.625 5220.85 428.625C5225.85 428.625 5230.26 427.744 5234.06 425.983C5237.93 424.165 5240.94 421.693 5243.1 418.568C5245.26 415.386 5246.31 411.75 5246.25 407.659C5246.31 403.568 5245.14 399.932 5242.76 396.75C5240.37 393.568 5236.99 391.097 5232.62 389.335C5228.3 387.574 5223.18 386.693 5217.27 386.693H5200.31V356.693H5217.27C5222.44 356.693 5226.99 355.841 5230.91 354.136C5234.89 352.432 5237.98 350.045 5240.2 346.977C5242.42 343.852 5243.5 340.273 5243.44 336.239C5243.5 332.318 5242.56 328.881 5240.63 325.926C5238.75 322.915 5236.11 320.585 5232.7 318.938C5229.35 317.29 5225.46 316.466 5221.02 316.466C5216.37 316.466 5212.13 317.29 5208.33 318.938C5204.58 320.585 5201.59 322.915 5199.38 325.926C5197.16 328.937 5196 332.432 5195.88 336.409H5155.57C5155.68 326.011 5158.58 316.864 5164.26 308.966C5169.94 301.011 5177.67 294.79 5187.44 290.301C5197.27 285.812 5208.47 283.568 5221.02 283.568C5233.52 283.568 5244.52 285.756 5254.01 290.131C5263.5 294.506 5270.88 300.472 5276.17 308.028C5281.45 315.528 5284.09 324.023 5284.09 333.511C5284.15 343.341 5280.94 351.437 5274.46 357.801C5268.04 364.165 5259.77 368.085 5249.66 369.562V370.926C5263.18 372.517 5273.38 376.892 5280.26 384.051C5287.19 391.21 5290.63 400.159 5290.57 410.898C5290.57 421.011 5287.59 429.989 5281.62 437.83C5275.71 445.614 5267.47 451.75 5256.9 456.239C5246.39 460.67 5234.32 462.886 5220.68 462.886ZM5380.76 462.886C5367.47 462.886 5355.68 460.614 5345.39 456.068C5335.16 451.466 5327.1 445.131 5321.19 437.062C5315.28 428.994 5312.27 419.705 5312.15 409.193H5354.6C5354.77 413 5355.99 416.381 5358.26 419.335C5360.53 422.233 5363.63 424.506 5367.55 426.153C5371.47 427.801 5375.93 428.625 5380.93 428.625C5385.93 428.625 5390.34 427.744 5394.14 425.983C5398.01 424.165 5401.02 421.693 5403.18 418.568C5405.34 415.386 5406.39 411.75 5406.33 407.659C5406.39 403.568 5405.22 399.932 5402.84 396.75C5400.45 393.568 5397.07 391.097 5392.69 389.335C5388.38 387.574 5383.26 386.693 5377.35 386.693H5360.39V356.693H5377.35C5382.52 356.693 5387.07 355.841 5390.99 354.136C5394.97 352.432 5398.06 350.045 5400.28 346.977C5402.49 343.852 5403.57 340.273 5403.52 336.239C5403.57 332.318 5402.64 328.881 5400.7 325.926C5398.83 322.915 5396.19 320.585 5392.78 318.938C5389.43 317.29 5385.53 316.466 5381.1 316.466C5376.44 316.466 5372.21 317.29 5368.4 318.938C5364.65 320.585 5361.67 322.915 5359.45 325.926C5357.24 328.937 5356.07 332.432 5355.96 336.409H5315.65C5315.76 326.011 5318.66 316.864 5324.34 308.966C5330.02 301.011 5337.75 294.79 5347.52 290.301C5357.35 285.812 5368.55 283.568 5381.1 283.568C5393.6 283.568 5404.6 285.756 5414.09 290.131C5423.57 294.506 5430.96 300.472 5436.24 308.028C5441.53 315.528 5444.17 324.023 5444.17 333.511C5444.23 343.341 5441.02 351.437 5434.54 357.801C5428.12 364.165 5419.85 368.085 5409.74 369.562V370.926C5423.26 372.517 5433.46 376.892 5440.34 384.051C5447.27 391.21 5450.7 400.159 5450.65 410.898C5450.65 421.011 5447.66 429.989 5441.7 437.83C5435.79 445.614 5427.55 451.75 5416.98 456.239C5406.47 460.67 5394.4 462.886 5380.76 462.886Z" fill="#E5F1E3"/>
<rect x="4947.02" y="392.99" width="282" height="582" rx="45" transform="rotate(60 4947.02 392.99)" fill="#529471" stroke="#E5F1E3" stroke-width="30"/>
<path d="M4710 632.471L4861.16 545.199L4882.26 581.734L4760.77 651.876L4797.08 714.761L4767.4 731.892L4710 632.471Z" fill="white"/>
<rect x="5516.99" y="637.21" width="282" height="582" rx="45" transform="rotate(-60 5516.99 637.21)" fill="#529471" stroke="#E5F1E3" stroke-width="30"/>
<path d="M5837.33 732.37L5686.17 645.097L5722.22 582.655C5728.75 571.337 5736.43 562.749 5745.26 556.89C5754.07 550.953 5763.55 547.933 5773.72 547.83C5783.83 547.699 5794.05 550.616 5804.39 556.582C5814.87 562.633 5822.45 570.063 5827.14 578.872C5831.78 587.653 5833.59 597.358 5832.57 607.989C5831.51 618.59 5827.65 629.648 5821 641.163L5798.2 680.65L5769.42 664.031L5788.29 631.334C5791.47 625.823 5793.42 620.81 5794.12 616.296C5794.8 611.704 5794.22 607.596 5792.38 603.972C5790.49 600.32 5787.2 597.145 5782.53 594.446C5777.85 591.747 5773.44 590.477 5769.28 590.634C5765.07 590.763 5761.12 592.258 5757.44 595.117C5753.7 597.947 5750.26 602.093 5747.11 607.555L5736.71 625.565L5858.42 695.834L5837.33 732.37ZM5817.38 607.382L5908.19 609.626L5885.18 649.482L5794.79 646.501L5817.38 607.382Z" fill="white"/>
<path d="M2805.5 2094.5C2805.5 2296.05 2654.04 2457.5 2469.5 2457.5C2284.96 2457.5 2133.5 2296.05 2133.5 2094.5C2133.5 1892.95 2284.96 1731.5 2469.5 1731.5C2654.04 1731.5 2805.5 1892.95 2805.5 2094.5Z" fill="#529471" stroke="#E5F1E3" stroke-width="30"/>
<path d="M2388.68 2178.89C2375.39 2178.89 2363.6 2176.61 2353.31 2172.07C2343.09 2167.47 2335.02 2161.13 2329.11 2153.06C2323.2 2144.99 2320.19 2135.7 2320.08 2125.19H2362.52C2362.69 2129 2363.91 2132.38 2366.18 2135.34C2368.46 2138.23 2371.55 2140.51 2375.47 2142.15C2379.39 2143.8 2383.85 2144.62 2388.85 2144.62C2393.85 2144.62 2398.26 2143.74 2402.06 2141.98C2405.93 2140.16 2408.94 2137.69 2411.1 2134.57C2413.26 2131.39 2414.31 2127.75 2414.25 2123.66C2414.31 2119.57 2413.14 2115.93 2410.76 2112.75C2408.37 2109.57 2404.99 2107.1 2400.62 2105.34C2396.3 2103.57 2391.18 2102.69 2385.27 2102.69H2368.31V2072.69H2385.27C2390.44 2072.69 2394.99 2071.84 2398.91 2070.14C2402.89 2068.43 2405.98 2066.05 2408.2 2062.98C2410.42 2059.85 2411.5 2056.27 2411.44 2052.24C2411.5 2048.32 2410.56 2044.88 2408.63 2041.93C2406.75 2038.91 2404.11 2036.59 2400.7 2034.94C2397.35 2033.29 2393.46 2032.47 2389.02 2032.47C2384.37 2032.47 2380.13 2033.29 2376.33 2034.94C2372.58 2036.59 2369.59 2038.91 2367.38 2041.93C2365.16 2044.94 2364 2048.43 2363.88 2052.41H2323.57C2323.68 2042.01 2326.58 2032.86 2332.26 2024.97C2337.94 2017.01 2345.67 2010.79 2355.44 2006.3C2365.27 2001.81 2376.47 1999.57 2389.02 1999.57C2401.52 1999.57 2412.52 2001.76 2422.01 2006.13C2431.5 2010.51 2438.88 2016.47 2444.17 2024.03C2449.45 2031.53 2452.09 2040.02 2452.09 2049.51C2452.15 2059.34 2448.94 2067.44 2442.46 2073.8C2436.04 2080.16 2427.77 2084.09 2417.66 2085.56V2086.93C2431.18 2088.52 2441.38 2092.89 2448.26 2100.05C2455.19 2107.21 2458.63 2116.16 2458.57 2126.9C2458.57 2137.01 2455.59 2145.99 2449.62 2153.83C2443.71 2161.61 2435.47 2167.75 2424.9 2172.24C2414.39 2176.67 2402.32 2178.89 2388.68 2178.89ZM2548.76 2178.89C2535.47 2178.89 2523.68 2176.61 2513.39 2172.07C2503.16 2167.47 2495.1 2161.13 2489.19 2153.06C2483.28 2144.99 2480.27 2135.7 2480.15 2125.19H2522.6C2522.77 2129 2523.99 2132.38 2526.26 2135.34C2528.53 2138.23 2531.63 2140.51 2535.55 2142.15C2539.47 2143.8 2543.93 2144.62 2548.93 2144.62C2553.93 2144.62 2558.34 2143.74 2562.14 2141.98C2566.01 2140.16 2569.02 2137.69 2571.18 2134.57C2573.34 2131.39 2574.39 2127.75 2574.33 2123.66C2574.39 2119.57 2573.22 2115.93 2570.84 2112.75C2568.45 2109.57 2565.07 2107.1 2560.69 2105.34C2556.38 2103.57 2551.26 2102.69 2545.35 2102.69H2528.39V2072.69H2545.35C2550.52 2072.69 2555.07 2071.84 2558.99 2070.14C2562.97 2068.43 2566.06 2066.05 2568.28 2062.98C2570.49 2059.85 2571.57 2056.27 2571.52 2052.24C2571.57 2048.32 2570.64 2044.88 2568.7 2041.93C2566.83 2038.91 2564.19 2036.59 2560.78 2034.94C2557.43 2033.29 2553.53 2032.47 2549.1 2032.47C2544.44 2032.47 2540.21 2033.29 2536.4 2034.94C2532.65 2036.59 2529.67 2038.91 2527.45 2041.93C2525.24 2044.94 2524.07 2048.43 2523.96 2052.41H2483.65C2483.76 2042.01 2486.66 2032.86 2492.34 2024.97C2498.02 2017.01 2505.75 2010.79 2515.52 2006.3C2525.35 2001.81 2536.55 1999.57 2549.1 1999.57C2561.6 1999.57 2572.6 2001.76 2582.09 2006.13C2591.57 2010.51 2598.96 2016.47 2604.24 2024.03C2609.53 2031.53 2612.17 2040.02 2612.17 2049.51C2612.23 2059.34 2609.02 2067.44 2602.54 2073.8C2596.12 2080.16 2587.85 2084.09 2577.74 2085.56V2086.93C2591.26 2088.52 2601.46 2092.89 2608.34 2100.05C2615.27 2107.21 2618.7 2116.16 2618.65 2126.9C2618.65 2137.01 2615.66 2145.99 2609.7 2153.83C2603.79 2161.61 2595.55 2167.75 2584.98 2172.24C2574.47 2176.67 2562.4 2178.89 2548.76 2178.89Z" fill="#E5F1E3"/>
<rect x="2119.25" y="2205.71" width="282" height="582" rx="45" transform="rotate(45 2119.25 2205.71)" fill="#529471" stroke="#E5F1E3" stroke-width="30"/>
<path d="M1952.29 2498.38L2075.72 2374.96L2105.55 2404.79L2006.35 2503.98L2057.7 2555.33L2033.47 2579.55L1952.29 2498.38Z" fill="white"/>
<rect x="2684.99" y="2353.21" width="282" height="582" rx="45" transform="rotate(-60 2684.99 2353.21)" fill="#529471" stroke="#E5F1E3" stroke-width="30"/>
<path d="M3005.33 2448.37L2854.17 2361.1L2890.22 2298.65C2896.75 2287.34 2904.43 2278.75 2913.26 2272.89C2922.07 2266.95 2931.55 2263.93 2941.72 2263.83C2951.83 2263.7 2962.05 2266.62 2972.39 2272.58C2982.87 2278.63 2990.45 2286.06 2995.14 2294.87C2999.78 2303.65 3001.59 2313.36 3000.57 2323.99C2999.51 2334.59 2995.65 2345.65 2989 2357.16L2966.2 2396.65L2937.42 2380.03L2956.29 2347.33C2959.48 2341.82 2961.42 2336.81 2962.12 2332.3C2962.8 2327.7 2962.22 2323.6 2960.38 2319.97C2958.49 2316.32 2955.2 2313.14 2950.53 2310.45C2945.85 2307.75 2941.44 2306.48 2937.28 2306.63C2933.07 2306.76 2929.12 2308.26 2925.44 2311.12C2921.7 2313.95 2918.26 2318.09 2915.11 2323.56L2904.71 2341.56L3026.42 2411.83L3005.33 2448.37ZM2985.38 2323.38L3076.19 2325.63L3053.18 2365.48L2962.79 2362.5L2985.38 2323.38Z" fill="white"/>
<path d="M7185.5 2118.5C7185.5 2320.05 7034.04 2481.5 6849.5 2481.5C6664.96 2481.5 6513.5 2320.05 6513.5 2118.5C6513.5 1916.95 6664.96 1755.5 6849.5 1755.5C7034.04 1755.5 7185.5 1916.95 7185.5 2118.5Z" fill="#529471" stroke="#E5F1E3" stroke-width="30"/>
<path d="M6768.68 2202.89C6755.39 2202.89 6743.6 2200.61 6733.31 2196.07C6723.09 2191.47 6715.02 2185.13 6709.11 2177.06C6703.2 2168.99 6700.19 2159.7 6700.08 2149.19H6742.52C6742.69 2153 6743.91 2156.38 6746.18 2159.34C6748.46 2162.23 6751.55 2164.51 6755.47 2166.15C6759.39 2167.8 6763.85 2168.62 6768.85 2168.62C6773.85 2168.62 6778.26 2167.74 6782.06 2165.98C6785.93 2164.16 6788.94 2161.69 6791.1 2158.57C6793.26 2155.39 6794.31 2151.75 6794.25 2147.66C6794.31 2143.57 6793.14 2139.93 6790.76 2136.75C6788.37 2133.57 6784.99 2131.1 6780.62 2129.34C6776.3 2127.57 6771.18 2126.69 6765.27 2126.69H6748.31V2096.69H6765.27C6770.44 2096.69 6774.99 2095.84 6778.91 2094.14C6782.89 2092.43 6785.98 2090.05 6788.2 2086.98C6790.42 2083.85 6791.5 2080.27 6791.44 2076.24C6791.5 2072.32 6790.56 2068.88 6788.63 2065.93C6786.75 2062.91 6784.11 2060.59 6780.7 2058.94C6777.35 2057.29 6773.46 2056.47 6769.02 2056.47C6764.37 2056.47 6760.13 2057.29 6756.33 2058.94C6752.58 2060.59 6749.59 2062.91 6747.38 2065.93C6745.16 2068.94 6744 2072.43 6743.88 2076.41H6703.57C6703.68 2066.01 6706.58 2056.86 6712.26 2048.97C6717.94 2041.01 6725.67 2034.79 6735.44 2030.3C6745.27 2025.81 6756.47 2023.57 6769.02 2023.57C6781.52 2023.57 6792.52 2025.76 6802.01 2030.13C6811.5 2034.51 6818.88 2040.47 6824.17 2048.03C6829.45 2055.53 6832.09 2064.02 6832.09 2073.51C6832.15 2083.34 6828.94 2091.44 6822.46 2097.8C6816.04 2104.16 6807.77 2108.09 6797.66 2109.56V2110.93C6811.18 2112.52 6821.38 2116.89 6828.26 2124.05C6835.19 2131.21 6838.63 2140.16 6838.57 2150.9C6838.57 2161.01 6835.59 2169.99 6829.62 2177.83C6823.71 2185.61 6815.47 2191.75 6804.91 2196.24C6794.39 2200.67 6782.32 2202.89 6768.68 2202.89ZM6928.76 2202.89C6915.47 2202.89 6903.68 2200.61 6893.39 2196.07C6883.17 2191.47 6875.1 2185.13 6869.19 2177.06C6863.28 2168.99 6860.27 2159.7 6860.15 2149.19H6902.6C6902.77 2153 6903.99 2156.38 6906.26 2159.34C6908.53 2162.23 6911.63 2164.51 6915.55 2166.15C6919.47 2167.8 6923.93 2168.62 6928.93 2168.62C6933.93 2168.62 6938.34 2167.74 6942.14 2165.98C6946.01 2164.16 6949.02 2161.69 6951.18 2158.57C6953.34 2155.39 6954.39 2151.75 6954.33 2147.66C6954.39 2143.57 6953.22 2139.93 6950.84 2136.75C6948.45 2133.57 6945.07 2131.1 6940.69 2129.34C6936.38 2127.57 6931.26 2126.69 6925.35 2126.69H6908.39V2096.69H6925.35C6930.52 2096.69 6935.07 2095.84 6938.99 2094.14C6942.97 2092.43 6946.06 2090.05 6948.28 2086.98C6950.49 2083.85 6951.57 2080.27 6951.52 2076.24C6951.57 2072.32 6950.64 2068.88 6948.7 2065.93C6946.83 2062.91 6944.19 2060.59 6940.78 2058.94C6937.43 2057.29 6933.53 2056.47 6929.1 2056.47C6924.44 2056.47 6920.21 2057.29 6916.4 2058.94C6912.65 2060.59 6909.67 2062.91 6907.45 2065.93C6905.24 2068.94 6904.07 2072.43 6903.96 2076.41H6863.65C6863.76 2066.01 6866.66 2056.86 6872.34 2048.97C6878.02 2041.01 6885.75 2034.79 6895.52 2030.3C6905.35 2025.81 6916.55 2023.57 6929.1 2023.57C6941.6 2023.57 6952.6 2025.76 6962.09 2030.13C6971.57 2034.51 6978.96 2040.47 6984.24 2048.03C6989.53 2055.53 6992.17 2064.02 6992.17 2073.51C6992.23 2083.34 6989.02 2091.44 6982.54 2097.8C6976.12 2104.16 6967.85 2108.09 6957.74 2109.56V2110.93C6971.26 2112.52 6981.46 2116.89 6988.34 2124.05C6995.27 2131.21 6998.7 2140.16 6998.65 2150.9C6998.65 2161.01 6995.67 2169.99 6989.7 2177.83C6983.79 2185.61 6975.55 2191.75 6964.98 2196.24C6954.47 2200.67 6942.4 2202.89 6928.76 2202.89Z" fill="#E5F1E3"/>
<rect x="6521.99" y="2264.99" width="282" height="582" rx="45" transform="rotate(30 6521.99 2264.99)" fill="#529471" stroke="#E5F1E3" stroke-width="30"/>
<path d="M6436.47 2590.89L6523.74 2439.73L6560.28 2460.83L6490.14 2582.32L6553.02 2618.62L6535.89 2648.29L6436.47 2590.89Z" fill="white"/>
<rect x="6992.99" y="2387.99" width="282" height="582" rx="45" transform="rotate(-30 6992.99 2387.99)" fill="#529471" stroke="#E5F1E3" stroke-width="30"/>
<path d="M7222.83 2630.57L7135.56 2479.41L7198 2443.36C7209.32 2436.82 7220.26 2433.23 7230.84 2432.57C7241.43 2431.83 7251.16 2433.96 7260.01 2438.95C7268.84 2443.89 7276.23 2451.53 7282.2 2461.86C7288.25 2472.34 7291.1 2482.57 7290.76 2492.55C7290.39 2502.47 7287.1 2511.78 7280.9 2520.48C7274.68 2529.12 7265.81 2536.77 7254.29 2543.42L7214.81 2566.22L7198.19 2537.43L7230.88 2518.55C7236.39 2515.37 7240.58 2512 7243.45 2508.44C7246.34 2504.81 7247.89 2500.96 7248.1 2496.9C7248.29 2492.79 7247.03 2488.4 7244.33 2483.72C7241.63 2479.05 7238.44 2475.74 7234.76 2473.8C7231.06 2471.81 7226.89 2471.13 7222.27 2471.76C7217.62 2472.35 7212.57 2474.21 7207.1 2477.37L7189.1 2487.77L7259.37 2609.48L7222.83 2630.57ZM7268.05 2512.35L7345.57 2559.7L7305.72 2582.71L7228.93 2534.94L7268.05 2512.35Z" fill="white"/>
<line x1="3245.77" y1="2552.6" x2="4325.77" y2="3782.6" stroke="#E5F1E3" stroke-width="30"/>
<line x1="7375.45" y1="2806.92" x2="8179.45" y2="4180.92" stroke="#E5F1E3" stroke-width="30"/>
<rect x="582.5" y="3948.5" width="582" height="384" rx="60" fill="#E5F1E3"/>
<path d="M830.23 4041.95V4216.5H794.435L724.974 4115.76H723.866V4216.5H681.679V4041.95H717.986L786.679 4142.52H788.128V4041.95H830.23ZM941.217 4159.99V4085.59H982.808V4216.5H943.092V4192.12H941.729C938.831 4200.14 933.888 4206.5 926.899 4211.22C919.967 4215.87 911.587 4218.2 901.757 4218.2C892.837 4218.2 884.996 4216.16 878.234 4212.07C871.473 4207.98 866.217 4202.27 862.467 4194.94C858.717 4187.55 856.814 4178.91 856.757 4169.03V4085.59H898.433V4160.85C898.49 4167.95 900.365 4173.55 904.058 4177.64C907.751 4181.73 912.78 4183.77 919.143 4183.77C923.291 4183.77 927.013 4182.86 930.308 4181.05C933.661 4179.17 936.303 4176.47 938.234 4172.95C940.223 4169.37 941.217 4165.05 941.217 4159.99ZM1051.01 4041.95V4216.5H1009.34V4041.95H1051.01ZM1119.21 4041.95V4216.5H1077.54V4041.95H1119.21Z" fill="#35635B"/>
<rect x="5532.5" y="4104.5" width="582" height="384" rx="60" fill="#E5F1E3"/>
<path d="M5780.23 4197.95V4372.5H5744.43L5674.97 4271.76H5673.87V4372.5H5631.68V4197.95H5667.99L5736.68 4298.52H5738.13V4197.95H5780.23ZM5891.22 4315.99V4241.59H5932.81V4372.5H5893.09V4348.12H5891.73C5888.83 4356.14 5883.89 4362.5 5876.9 4367.22C5869.97 4371.87 5861.59 4374.2 5851.76 4374.2C5842.84 4374.2 5835 4372.16 5828.23 4368.07C5821.47 4363.98 5816.22 4358.27 5812.47 4350.94C5808.72 4343.55 5806.81 4334.91 5806.76 4325.03V4241.59H5848.43V4316.85C5848.49 4323.95 5850.37 4329.55 5854.06 4333.64C5857.75 4337.73 5862.78 4339.77 5869.14 4339.77C5873.29 4339.77 5877.01 4338.86 5880.31 4337.05C5883.66 4335.17 5886.3 4332.47 5888.23 4328.95C5890.22 4325.37 5891.22 4321.05 5891.22 4315.99ZM6001.01 4197.95V4372.5H5959.34V4197.95H6001.01ZM6069.21 4197.95V4372.5H6027.54V4197.95H6069.21Z" fill="#35635B"/>
<rect x="7848.5" y="4158.5" width="582" height="384" rx="60" fill="#E5F1E3"/>
<path d="M8096.23 4251.95V4426.5H8060.43L7990.97 4325.76H7989.87V4426.5H7947.68V4251.95H7983.99L8052.68 4352.52H8054.13V4251.95H8096.23ZM8207.22 4369.99V4295.59H8248.81V4426.5H8209.09V4402.12H8207.73C8204.83 4410.14 8199.89 4416.5 8192.9 4421.22C8185.97 4425.87 8177.59 4428.2 8167.76 4428.2C8158.84 4428.2 8151 4426.16 8144.23 4422.07C8137.47 4417.98 8132.22 4412.27 8128.47 4404.94C8124.72 4397.55 8122.81 4388.91 8122.76 4379.03V4295.59H8164.43V4370.85C8164.49 4377.95 8166.37 4383.55 8170.06 4387.64C8173.75 4391.73 8178.78 4393.77 8185.14 4393.77C8189.29 4393.77 8193.01 4392.86 8196.31 4391.05C8199.66 4389.17 8202.3 4386.47 8204.23 4382.95C8206.22 4379.37 8207.22 4375.05 8207.22 4369.99ZM8317.01 4251.95V4426.5H8275.34V4251.95H8317.01ZM8385.21 4251.95V4426.5H8343.54V4251.95H8385.21Z" fill="#35635B"/>
<rect x="4086.5" y="3792.5" width="582" height="384" rx="60" fill="#E5F1E3"/>
<path d="M4334.23 3885.95V4060.5H4298.43L4228.97 3959.76H4227.87V4060.5H4185.68V3885.95H4221.99L4290.68 3986.52H4292.13V3885.95H4334.23ZM4445.22 4003.99V3929.59H4486.81V4060.5H4447.09V4036.12H4445.73C4442.83 4044.14 4437.89 4050.5 4430.9 4055.22C4423.97 4059.87 4415.59 4062.2 4405.76 4062.2C4396.84 4062.2 4389 4060.16 4382.23 4056.07C4375.47 4051.98 4370.22 4046.27 4366.47 4038.94C4362.72 4031.55 4360.81 4022.91 4360.76 4013.03V3929.59H4402.43V4004.85C4402.49 4011.95 4404.37 4017.55 4408.06 4021.64C4411.75 4025.73 4416.78 4027.77 4423.14 4027.77C4427.29 4027.77 4431.01 4026.86 4434.31 4025.05C4437.66 4023.17 4440.3 4020.47 4442.23 4016.95C4444.22 4013.37 4445.22 4009.05 4445.22 4003.99ZM4555.01 3885.95V4060.5H4513.34V3885.95H4555.01ZM4623.21 3885.95V4060.5H4581.54V3885.95H4623.21Z" fill="#35635B"/>
</svg>
