<svg width="231" height="237" viewBox="0 0 231 237" fill="none" xmlns="http://www.w3.org/2000/svg">
<rect x="147.5" y="92.5" width="82" height="143" rx="13.5" fill="#113C51" stroke="#27556C" stroke-width="3"/>
<rect x="165" y="155" width="48" height="24" rx="3" fill="#477186"/>
<rect x="165" y="191" width="48" height="24" rx="3" fill="#477186"/>
<path d="M184.847 173.119C184.211 173.119 183.644 173.01 183.147 172.791C182.653 172.57 182.262 172.266 181.975 171.879C181.691 171.49 181.545 171.041 181.536 170.533H183.394C183.406 170.746 183.475 170.933 183.603 171.095C183.734 171.254 183.907 171.378 184.123 171.466C184.339 171.554 184.582 171.598 184.852 171.598C185.133 171.598 185.381 171.548 185.597 171.449C185.813 171.349 185.982 171.212 186.104 171.036C186.227 170.859 186.288 170.656 186.288 170.426C186.288 170.193 186.222 169.987 186.092 169.808C185.964 169.626 185.779 169.484 185.538 169.382C185.299 169.28 185.015 169.229 184.685 169.229H183.871V167.874H184.685C184.964 167.874 185.21 167.825 185.423 167.729C185.638 167.632 185.806 167.499 185.925 167.328C186.045 167.155 186.104 166.953 186.104 166.723C186.104 166.504 186.052 166.312 185.947 166.148C185.844 165.98 185.7 165.849 185.512 165.756C185.327 165.662 185.112 165.615 184.864 165.615C184.614 165.615 184.386 165.661 184.178 165.751C183.971 165.839 183.805 165.966 183.68 166.131C183.555 166.295 183.488 166.489 183.479 166.71H181.711C181.719 166.207 181.863 165.764 182.141 165.381C182.42 164.997 182.795 164.697 183.266 164.482C183.741 164.263 184.276 164.153 184.873 164.153C185.475 164.153 186.002 164.263 186.454 164.482C186.906 164.7 187.256 164.996 187.506 165.368C187.759 165.737 187.884 166.152 187.881 166.612C187.884 167.101 187.732 167.509 187.425 167.835C187.121 168.162 186.725 168.369 186.237 168.457V168.526C186.879 168.608 187.367 168.831 187.702 169.195C188.04 169.555 188.208 170.007 188.205 170.55C188.208 171.047 188.065 171.489 187.775 171.875C187.488 172.261 187.092 172.565 186.586 172.787C186.08 173.009 185.501 173.119 184.847 173.119ZM192.953 173.192C192.221 173.189 191.59 173.009 191.061 172.651C190.536 172.293 190.131 171.774 189.847 171.095C189.566 170.416 189.426 169.599 189.429 168.645C189.429 167.693 189.57 166.882 189.851 166.212C190.135 165.541 190.54 165.031 191.066 164.682C191.594 164.33 192.223 164.153 192.953 164.153C193.684 164.153 194.311 164.33 194.837 164.682C195.365 165.034 195.772 165.545 196.056 166.216C196.34 166.884 196.48 167.693 196.478 168.645C196.478 169.602 196.336 170.42 196.051 171.099C195.77 171.778 195.367 172.297 194.841 172.655C194.316 173.013 193.686 173.192 192.953 173.192ZM192.953 171.662C193.453 171.662 193.853 171.411 194.151 170.908C194.449 170.405 194.597 169.651 194.594 168.645C194.594 167.983 194.526 167.432 194.39 166.991C194.256 166.551 194.066 166.22 193.819 165.999C193.574 165.777 193.286 165.666 192.953 165.666C192.456 165.666 192.059 165.915 191.76 166.412C191.462 166.909 191.311 167.653 191.309 168.645C191.309 169.315 191.375 169.875 191.509 170.324C191.645 170.77 191.837 171.105 192.084 171.33C192.331 171.551 192.621 171.662 192.953 171.662Z" fill="white"/>
<path d="M183.341 198.273V207H181.748L177.951 201.507H177.887V207H176.042V198.273H177.661L181.428 203.761H181.505V198.273H183.341ZM187.815 207.128C187.142 207.128 186.562 206.991 186.076 206.719C185.593 206.443 185.221 206.054 184.96 205.551C184.698 205.045 184.568 204.447 184.568 203.757C184.568 203.084 184.698 202.493 184.96 201.984C185.221 201.476 185.589 201.08 186.063 200.795C186.541 200.511 187.1 200.369 187.742 200.369C188.174 200.369 188.576 200.439 188.948 200.578C189.323 200.714 189.65 200.92 189.928 201.196C190.21 201.472 190.428 201.818 190.585 202.236C190.741 202.651 190.819 203.136 190.819 203.693V204.192H185.292V203.067H189.11C189.11 202.805 189.053 202.574 188.94 202.372C188.826 202.17 188.669 202.013 188.467 201.899C188.268 201.783 188.036 201.724 187.772 201.724C187.497 201.724 187.252 201.788 187.039 201.916C186.829 202.041 186.664 202.21 186.545 202.423C186.426 202.634 186.365 202.868 186.362 203.126V204.196C186.362 204.52 186.421 204.8 186.541 205.036C186.663 205.271 186.835 205.453 187.056 205.581C187.278 205.709 187.541 205.773 187.845 205.773C188.046 205.773 188.231 205.744 188.399 205.688C188.566 205.631 188.71 205.545 188.829 205.432C188.948 205.318 189.039 205.179 189.102 205.014L190.781 205.125C190.695 205.528 190.521 205.881 190.257 206.182C189.995 206.48 189.657 206.713 189.242 206.881C188.83 207.045 188.355 207.128 187.815 207.128ZM193.404 200.455L194.605 202.743L195.837 200.455H197.699L195.803 203.727L197.75 207H195.896L194.605 204.737L193.335 207H191.46L193.404 203.727L191.529 200.455H193.404ZM202.259 200.455V201.818H198.317V200.455H202.259ZM199.212 198.886H201.027V204.989C201.027 205.156 201.053 205.287 201.104 205.381C201.155 205.472 201.226 205.536 201.317 205.572C201.411 205.609 201.519 205.628 201.641 205.628C201.726 205.628 201.811 205.621 201.896 205.607C201.982 205.589 202.047 205.577 202.093 205.568L202.378 206.919C202.287 206.947 202.159 206.98 201.994 207.017C201.83 207.057 201.629 207.081 201.394 207.089C200.956 207.107 200.573 207.048 200.243 206.915C199.916 206.781 199.662 206.574 199.48 206.293C199.298 206.011 199.209 205.656 199.212 205.227V198.886Z" fill="white"/>
<path d="M188.964 132.199C187.903 132.199 186.958 132.017 186.13 131.652C185.306 131.283 184.655 130.776 184.177 130.132C183.703 129.483 183.459 128.735 183.445 127.888H186.542C186.561 128.243 186.677 128.555 186.89 128.825C187.108 129.09 187.396 129.296 187.756 129.443C188.116 129.59 188.521 129.663 188.971 129.663C189.439 129.663 189.854 129.58 190.214 129.415C190.573 129.249 190.855 129.019 191.059 128.726C191.262 128.432 191.364 128.094 191.364 127.71C191.364 127.322 191.255 126.979 191.037 126.68C190.824 126.377 190.517 126.141 190.114 125.97C189.716 125.8 189.243 125.714 188.694 125.714H187.337V123.456H188.694C189.158 123.456 189.567 123.375 189.922 123.214C190.282 123.054 190.562 122.831 190.76 122.547C190.959 122.258 191.059 121.922 191.059 121.538C191.059 121.174 190.971 120.854 190.796 120.58C190.626 120.3 190.384 120.082 190.072 119.926C189.764 119.77 189.404 119.692 188.992 119.692C188.575 119.692 188.194 119.768 187.849 119.919C187.503 120.066 187.226 120.277 187.018 120.551C186.809 120.826 186.698 121.148 186.684 121.517H183.736C183.751 120.679 183.99 119.94 184.454 119.301C184.918 118.662 185.543 118.162 186.329 117.803C187.119 117.438 188.012 117.256 189.006 117.256C190.01 117.256 190.888 117.438 191.641 117.803C192.394 118.167 192.979 118.66 193.395 119.28C193.817 119.895 194.025 120.587 194.02 121.354C194.025 122.168 193.772 122.848 193.26 123.392C192.754 123.937 192.093 124.282 191.279 124.429V124.543C192.349 124.68 193.163 125.052 193.722 125.658C194.286 126.259 194.565 127.012 194.56 127.916C194.565 128.745 194.326 129.481 193.843 130.125C193.365 130.769 192.704 131.276 191.861 131.645C191.019 132.014 190.053 132.199 188.964 132.199Z" fill="white"/>
<rect x="131.477" y="9.07791" width="82" height="143" rx="13.5" transform="rotate(56.6115 131.477 9.07791)" fill="#113C51" stroke="#27556C" stroke-width="3"/>
<rect x="88.9225" y="58.0843" width="48" height="24" rx="3" transform="rotate(56.6115 88.9225 58.0843)" fill="#477186"/>
<rect x="58.864" y="77.8955" width="48" height="24" rx="3" transform="rotate(56.6115 58.864 77.8955)" fill="#477186"/>
<path d="M84.7159 84.6272C84.3657 84.0959 84.1451 83.5625 84.0542 83.027C83.9672 82.4923 84.006 81.9989 84.1707 81.5467C84.3393 81.0953 84.6336 80.7261 85.0535 80.4392L86.076 81.9905C85.9043 82.1172 85.7861 82.2785 85.7212 82.4744C85.6603 82.671 85.6525 82.8837 85.6977 83.1125C85.743 83.3412 85.8399 83.5682 85.9885 83.7936C86.1432 84.0284 86.3215 84.2086 86.5234 84.3342C86.7252 84.4597 86.9333 84.525 87.1476 84.5301C87.3619 84.5352 87.5651 84.4744 87.7572 84.3478C87.9517 84.2196 88.0877 84.0517 88.1653 83.8441C88.2467 83.6373 88.2637 83.4049 88.2162 83.147C88.1703 82.8915 88.0566 82.6261 87.8753 82.351L87.4274 81.6714L88.5588 80.9256L89.0067 81.6052C89.16 81.8377 89.3355 82.0163 89.5334 82.141C89.7329 82.2682 89.9366 82.3346 90.1446 82.3404C90.355 82.3447 90.5562 82.2835 90.7483 82.1569C90.931 82.0365 91.0622 81.8871 91.1419 81.7087C91.2256 81.531 91.255 81.3381 91.23 81.13C91.2067 80.9242 91.127 80.7181 90.991 80.5118C90.8534 80.303 90.6896 80.1371 90.4996 80.014C90.3119 79.8893 90.1149 79.8201 89.9085 79.8064C89.7022 79.7927 89.5041 79.8433 89.3144 79.9581L88.3412 78.4815C88.7658 78.2119 89.2148 78.0878 89.6882 78.1092C90.1616 78.1306 90.6182 78.2788 91.058 78.5537C91.5018 78.8295 91.8878 79.2164 92.2161 79.7145C92.5476 80.2174 92.7462 80.7176 92.8122 81.2151C92.8781 81.7127 92.8245 82.1682 92.6513 82.5818C92.4821 82.9961 92.2046 83.3287 91.8187 83.5796C91.4123 83.8509 90.9883 83.9483 90.5467 83.872C90.1066 83.7979 89.7153 83.5812 89.3729 83.2216L89.316 83.2592C89.6005 83.8406 89.6832 84.3713 89.5641 84.8513C89.4489 85.3321 89.1639 85.7207 88.7093 86.0169C88.2958 86.2929 87.848 86.4162 87.3659 86.3869C86.8854 86.3599 86.4135 86.1963 85.9502 85.896C85.4869 85.5957 85.0755 85.1728 84.7159 84.6272ZM89.1163 91.4354C88.7154 90.8219 88.5189 90.196 88.527 89.5578C88.5366 88.922 88.7468 88.2987 89.1573 87.6878C89.5695 87.0793 90.1748 86.5136 90.9734 85.9907C91.768 85.467 92.5226 85.138 93.2372 85.0039C93.9534 84.8721 94.6019 84.9295 95.1829 85.1761C95.7678 85.4234 96.2612 85.8519 96.663 86.4615C97.0648 87.0711 97.2632 87.6923 97.2583 88.3249C97.255 88.96 97.0516 89.5806 96.6481 90.1868C96.247 90.7914 95.6484 91.3544 94.8522 91.8757C94.0528 92.4026 93.2915 92.7342 92.5682 92.8707C91.8465 93.0095 91.1916 92.958 90.6035 92.7162C90.0154 92.4743 89.5197 92.0474 89.1163 91.4354ZM90.3937 90.5935C90.6688 91.011 91.0984 91.2059 91.6824 91.1783C92.2664 91.1506 92.9775 90.8589 93.8156 90.3031C94.3683 89.9388 94.791 89.5786 95.0836 89.2224C95.3778 88.8686 95.5494 88.5275 95.5984 88.1992C95.649 87.8733 95.5828 87.5715 95.3999 87.294C95.1263 86.8789 94.6998 86.6836 94.1206 86.7081C93.5413 86.7327 92.837 87.0165 92.0076 87.5598C91.4478 87.9288 91.0172 88.2925 90.7159 88.651C90.4186 89.0103 90.2442 89.3549 90.1928 89.6848C90.1438 90.0131 90.2108 90.316 90.3937 90.5935Z" fill="white"/>
<path d="M62.8851 97.2122L55.5982 102.015L54.7212 100.684L57.218 94.4911L57.1829 94.4378L52.5965 97.4606L51.5811 95.9199L58.868 91.1172L59.7591 92.4693L57.2494 98.6351L57.2916 98.6991L61.8744 95.6786L62.8851 97.2122ZM57.9532 105.82C57.5827 105.258 57.3776 104.699 57.338 104.143C57.3023 103.589 57.4225 103.064 57.6985 102.569C57.9769 102.072 58.4043 101.634 58.9807 101.254C59.5429 100.884 60.1082 100.668 60.6766 100.606C61.245 100.544 61.7784 100.633 62.2767 100.873C62.7765 101.115 63.2031 101.504 63.5565 102.041C63.7941 102.401 63.9572 102.775 64.0458 103.162C64.1383 103.551 64.1461 103.937 64.0692 104.321C63.9939 104.707 63.8249 105.081 63.5622 105.441C63.3019 105.8 62.9392 106.132 62.4743 106.439L62.058 106.713L59.0165 102.098L59.9558 101.479L62.057 104.667C62.2752 104.523 62.4373 104.348 62.5431 104.143C62.649 103.937 62.6939 103.718 62.6778 103.487C62.6656 103.257 62.5868 103.032 62.4414 102.811C62.2898 102.581 62.1019 102.412 61.8779 102.305C61.6579 102.198 61.4261 102.153 61.1825 102.171C60.9413 102.187 60.712 102.265 60.4946 102.405L59.6015 102.994C59.3311 103.172 59.1303 103.376 58.9991 103.605C58.8694 103.837 58.8122 104.08 58.8274 104.336C58.8426 104.591 58.9338 104.846 59.1011 105.099C59.2121 105.268 59.3375 105.406 59.4771 105.515C59.6168 105.624 59.7669 105.697 59.9275 105.734C60.088 105.771 60.2543 105.77 60.4263 105.732L61.2577 107.195C60.874 107.345 60.4837 107.393 60.0869 107.338C59.694 107.284 59.3134 107.13 58.9452 106.876C58.5809 106.623 58.2503 106.271 57.9532 105.82ZM66.6007 106.814L65.3514 109.077L67.9398 108.846L68.9646 110.401L65.1884 110.619L63.5276 114.046L62.5074 112.498L63.6862 110.174L61.098 110.359L60.0662 108.794L63.8682 108.615L65.5689 105.249L66.6007 106.814ZM71.4738 114.208L70.3353 114.958L68.1661 111.667L69.3046 110.917L71.4738 114.208ZM71.1065 110.801L72.1055 112.317L67.0103 115.675C66.8704 115.767 66.7753 115.86 66.7252 115.955C66.6774 116.047 66.6631 116.142 66.6823 116.238C66.7031 116.337 66.7471 116.437 66.8143 116.539C66.8612 116.61 66.914 116.677 66.9728 116.741C67.0339 116.803 67.0806 116.85 67.1127 116.883L66.1419 117.865C66.0682 117.805 65.9705 117.716 65.849 117.599C65.7251 117.483 65.5948 117.329 65.4579 117.137C65.2029 116.781 65.0405 116.429 64.9706 116.08C64.9023 115.734 64.9355 115.407 65.0703 115.101C65.2051 114.794 65.4523 114.524 65.8121 114.29L71.1065 110.801Z" fill="white"/>
<path d="M121.148 65.5451C120.564 64.6595 120.197 63.7705 120.045 62.878C119.9 61.9869 119.965 61.1645 120.239 60.4108C120.52 59.6585 121.011 59.0432 121.711 58.565L123.415 61.1505C123.129 61.3617 122.932 61.6306 122.824 61.957C122.722 62.2848 122.709 62.6393 122.784 63.0205C122.86 63.4017 123.021 63.7801 123.269 64.1557C123.527 64.5471 123.824 64.8474 124.161 65.0567C124.497 65.2659 124.844 65.3748 125.201 65.3832C125.558 65.3917 125.897 65.2904 126.217 65.0793C126.541 64.8656 126.768 64.5858 126.897 64.2398C127.033 63.8951 127.061 63.5079 126.982 63.078C126.905 62.6521 126.716 62.2099 126.414 61.7513L125.667 60.6187L127.553 59.3758L128.299 60.5084C128.555 60.8959 128.847 61.1935 129.177 61.4014C129.51 61.6133 129.849 61.7241 130.196 61.7338C130.546 61.7409 130.882 61.6389 131.202 61.4279C131.507 61.2272 131.725 60.9782 131.858 60.6808C131.997 60.3847 132.046 60.0633 132.005 59.7163C131.966 59.3734 131.833 59.0299 131.607 58.686C131.377 58.3381 131.104 58.0615 130.788 57.8563C130.475 57.6485 130.146 57.5332 129.802 57.5103C129.459 57.4875 129.128 57.5718 128.812 57.7632L127.19 55.3022C127.898 54.8529 128.646 54.646 129.435 54.6817C130.224 54.7174 130.985 54.9643 131.718 55.4225C132.458 55.8821 133.101 56.527 133.648 57.3572C134.201 58.1954 134.532 59.029 134.642 59.8583C134.752 60.6875 134.662 61.4467 134.374 62.136C134.092 62.8265 133.629 63.3809 132.986 63.7991C132.309 64.2512 131.602 64.4136 130.866 64.2863C130.133 64.1629 129.48 63.8016 128.91 63.2024L128.815 63.265C129.289 64.234 129.427 65.1185 129.228 65.9186C129.036 66.7199 128.561 67.3675 127.804 67.8612C127.115 68.3211 126.368 68.5267 125.565 68.4778C124.764 68.4329 123.977 68.1602 123.205 67.6597C122.433 67.1593 121.747 66.4544 121.148 65.5451Z" fill="white"/>
<rect x="1.5" y="235.5" width="82" height="143" rx="13.5" transform="rotate(-90 1.5 235.5)" fill="#113C51" stroke="#27556C" stroke-width="3"/>
<rect x="64" y="218" width="48" height="24" rx="3" transform="rotate(-90 64 218)" fill="#477186"/>
<rect x="100" y="218" width="48" height="24" rx="3" transform="rotate(-90 100 218)" fill="#477186"/>
<path d="M82.1193 198.153C82.1193 198.789 82.0099 199.356 81.7912 199.853C81.5696 200.347 81.2656 200.738 80.8793 201.025C80.4901 201.309 80.0412 201.455 79.5327 201.464V199.606C79.7457 199.594 79.9332 199.525 80.0952 199.397C80.2543 199.266 80.3778 199.093 80.4659 198.877C80.554 198.661 80.598 198.418 80.598 198.148C80.598 197.867 80.5483 197.619 80.4489 197.403C80.3494 197.187 80.2116 197.018 80.0355 196.896C79.8594 196.773 79.6562 196.712 79.4261 196.712C79.1932 196.712 78.9872 196.778 78.8082 196.908C78.6264 197.036 78.4844 197.221 78.3821 197.462C78.2798 197.701 78.2287 197.985 78.2287 198.315V199.129H76.8736V198.315C76.8736 198.036 76.8253 197.79 76.7287 197.577C76.6321 197.362 76.4986 197.194 76.3281 197.075C76.1548 196.955 75.9531 196.896 75.723 196.896C75.5043 196.896 75.3125 196.948 75.1477 197.053C74.9801 197.156 74.8494 197.3 74.7557 197.488C74.6619 197.673 74.6151 197.888 74.6151 198.136C74.6151 198.386 74.6605 198.614 74.7514 198.822C74.8395 199.029 74.9659 199.195 75.1307 199.32C75.2955 199.445 75.4886 199.512 75.7102 199.521V201.289C75.2074 201.281 74.7642 201.137 74.3807 200.859C73.9972 200.58 73.6974 200.205 73.4815 199.734C73.2628 199.259 73.1534 198.724 73.1534 198.127C73.1534 197.525 73.2628 196.998 73.4815 196.546C73.7003 196.094 73.9957 195.744 74.3679 195.494C74.7372 195.241 75.152 195.116 75.6122 195.119C76.1009 195.116 76.5085 195.268 76.8352 195.575C77.1619 195.879 77.3693 196.275 77.4574 196.763H77.5256C77.608 196.121 77.831 195.633 78.1946 195.298C78.5554 194.96 79.0071 194.792 79.5497 194.795C80.0469 194.792 80.4886 194.935 80.875 195.225C81.2614 195.512 81.5653 195.908 81.7869 196.414C82.0085 196.92 82.1193 197.499 82.1193 198.153ZM82.1918 190.047C82.1889 190.779 82.0085 191.41 81.6506 191.939C81.2926 192.464 80.7741 192.869 80.0952 193.153C79.4162 193.434 78.5994 193.574 77.6449 193.571C76.6932 193.571 75.8821 193.43 75.2116 193.149C74.5412 192.865 74.0312 192.46 73.6818 191.934C73.3295 191.406 73.1534 190.777 73.1534 190.047C73.1534 189.316 73.3295 188.689 73.6818 188.163C74.0341 187.635 74.5455 187.228 75.2159 186.944C75.8835 186.66 76.6932 186.52 77.6449 186.522C78.6023 186.522 79.4205 186.664 80.0994 186.949C80.7784 187.23 81.2969 187.633 81.6548 188.159C82.0128 188.684 82.1918 189.314 82.1918 190.047ZM80.6619 190.047C80.6619 189.547 80.4105 189.147 79.9077 188.849C79.4048 188.551 78.6506 188.403 77.6449 188.406C76.983 188.406 76.4318 188.474 75.9915 188.61C75.5511 188.744 75.2202 188.934 74.9986 189.181C74.777 189.426 74.6662 189.714 74.6662 190.047C74.6662 190.544 74.9148 190.941 75.4119 191.24C75.9091 191.538 76.6534 191.689 77.6449 191.691C78.3153 191.691 78.875 191.625 79.3239 191.491C79.7699 191.355 80.1051 191.163 80.3295 190.916C80.5511 190.669 80.6619 190.379 80.6619 190.047Z" fill="white"/>
<path d="M107.273 199.659H116V201.252L110.507 205.049V205.113H116V206.958H107.273V205.339L112.761 201.572V201.495H107.273V199.659ZM116.128 195.185C116.128 195.858 115.991 196.438 115.719 196.924C115.443 197.407 115.054 197.779 114.551 198.04C114.045 198.302 113.447 198.432 112.757 198.432C112.084 198.432 111.493 198.302 110.984 198.04C110.476 197.779 110.08 197.411 109.795 196.937C109.511 196.459 109.369 195.9 109.369 195.258C109.369 194.826 109.439 194.424 109.578 194.052C109.714 193.677 109.92 193.35 110.196 193.072C110.472 192.79 110.818 192.572 111.236 192.415C111.651 192.259 112.136 192.181 112.693 192.181H113.192V197.708H112.067V193.89C111.805 193.89 111.574 193.947 111.372 194.06C111.17 194.174 111.013 194.331 110.899 194.533C110.783 194.732 110.724 194.964 110.724 195.228C110.724 195.503 110.788 195.748 110.916 195.961C111.041 196.171 111.21 196.336 111.423 196.455C111.634 196.574 111.868 196.635 112.126 196.638H113.196C113.52 196.638 113.8 196.579 114.036 196.459C114.271 196.337 114.453 196.165 114.581 195.944C114.709 195.722 114.773 195.459 114.773 195.155C114.773 194.954 114.744 194.769 114.688 194.601C114.631 194.434 114.545 194.29 114.432 194.171C114.318 194.052 114.179 193.961 114.014 193.898L114.125 192.219C114.528 192.305 114.881 192.479 115.182 192.743C115.48 193.005 115.713 193.343 115.881 193.758C116.045 194.17 116.128 194.645 116.128 195.185ZM109.455 189.596L111.743 188.395L109.455 187.163V185.301L112.727 187.197L116 185.25V187.104L113.737 188.395L116 189.665V191.54L112.727 189.596L109.455 191.471V189.596ZM109.455 180.741H110.818V184.683H109.455V180.741ZM107.886 183.788V181.973H113.989C114.156 181.973 114.287 181.947 114.381 181.896C114.472 181.845 114.536 181.774 114.572 181.683C114.609 181.589 114.628 181.481 114.628 181.359C114.628 181.274 114.621 181.189 114.607 181.104C114.589 181.018 114.577 180.953 114.568 180.907L115.919 180.622C115.947 180.713 115.98 180.841 116.017 181.006C116.057 181.17 116.081 181.371 116.089 181.606C116.107 182.044 116.048 182.427 115.915 182.757C115.781 183.084 115.574 183.338 115.293 183.52C115.011 183.702 114.656 183.791 114.227 183.788H107.886Z" fill="white"/>
<path d="M41.1989 194.036C41.1989 195.097 41.0166 196.042 40.652 196.87C40.2827 197.694 39.776 198.345 39.1321 198.823C38.4834 199.297 37.7353 199.541 36.8878 199.555V196.458C37.2429 196.439 37.5554 196.323 37.8253 196.11C38.0904 195.892 38.2964 195.604 38.4432 195.244C38.59 194.884 38.6634 194.479 38.6634 194.029C38.6634 193.561 38.5805 193.146 38.4148 192.786C38.2491 192.427 38.0194 192.145 37.7259 191.941C37.4323 191.738 37.0937 191.636 36.7102 191.636C36.322 191.636 35.9787 191.745 35.6804 191.963C35.3774 192.176 35.1406 192.483 34.9702 192.886C34.7997 193.284 34.7145 193.757 34.7145 194.306V195.663H32.456V194.306C32.456 193.842 32.3755 193.433 32.2145 193.078C32.0535 192.718 31.831 192.438 31.5469 192.24C31.258 192.041 30.9219 191.941 30.5384 191.941C30.1738 191.941 29.8542 192.029 29.5795 192.204C29.3002 192.374 29.0824 192.616 28.9261 192.928C28.7699 193.236 28.6918 193.596 28.6918 194.008C28.6918 194.425 28.7675 194.806 28.919 195.151C29.0658 195.497 29.2765 195.774 29.5511 195.982C29.8258 196.191 30.1477 196.302 30.517 196.316V199.264C29.679 199.249 28.9403 199.01 28.3011 198.546C27.6619 198.082 27.1624 197.457 26.8026 196.671C26.438 195.881 26.2557 194.988 26.2557 193.994C26.2557 192.99 26.438 192.112 26.8026 191.359C27.1671 190.606 27.6596 190.021 28.2798 189.605C28.8954 189.183 29.5866 188.975 30.3537 188.98C31.1681 188.975 31.8475 189.228 32.392 189.74C32.9366 190.246 33.2822 190.907 33.429 191.721H33.5426C33.6799 190.651 34.0516 189.837 34.6577 189.278C35.259 188.714 36.0118 188.435 36.9162 188.44C37.7448 188.435 38.4811 188.674 39.125 189.157C39.7689 189.635 40.2756 190.296 40.6449 191.139C41.0142 191.981 41.1989 192.947 41.1989 194.036Z" fill="white"/>
<rect x="73" y="23.1467" width="43" height="19" rx="5" transform="rotate(-32.5676 73 23.1467)" fill="#477186"/>
<path d="M90.2965 16.6295L95.7773 25.2103L94.2103 26.2112L87.0275 23.1949L86.9647 23.2351L90.4143 28.6358L88.6001 29.7946L83.1193 21.2138L84.7114 20.1968L91.8621 23.2276L91.9376 23.1794L88.4906 17.7829L90.2965 16.6295ZM99.6194 18.8981L97.259 15.2026L99.0439 14.0626L103.155 20.4982L101.441 21.5927L100.694 20.4238L100.627 20.4666C100.723 20.9365 100.675 21.3939 100.483 21.8388C100.294 22.2819 99.9581 22.6578 99.4749 22.9665C99.0448 23.2412 98.6038 23.3852 98.1521 23.3984C97.7004 23.4116 97.2673 23.297 96.8528 23.0544C96.4411 22.81 96.0733 22.4373 95.7494 21.9364L93.1321 17.8387L94.9169 16.6986L97.3308 20.4779C97.5763 20.856 97.87 21.0911 98.2121 21.1833C98.5541 21.2755 98.8942 21.2137 99.2321 20.9978C99.4472 20.8604 99.6171 20.6831 99.7418 20.4658C99.8647 20.2457 99.921 20.0013 99.9106 19.7327C99.9031 19.4622 99.806 19.184 99.6194 18.8981ZM100.886 9.86543L106.367 18.4462L104.582 19.5863L99.1014 11.0055L100.886 9.86543ZM104.101 7.81213L109.582 16.3929L107.797 17.533L102.316 8.95219L104.101 7.81213Z" fill="white"/>
<rect x="182" y="72" width="43" height="19" rx="5" fill="#477186"/>
<path d="M200.085 75.8182V86H198.225L193.796 79.5916H193.721V86H191.569V75.8182H193.458L197.853 82.2216H197.942V75.8182H200.085ZM206.721 82.7486V78.3636H208.839V86H206.805V84.6129H206.726C206.553 85.0604 206.267 85.42 205.866 85.6918C205.468 85.9635 204.982 86.0994 204.409 86.0994C203.898 86.0994 203.449 85.9834 203.062 85.7514C202.674 85.5194 202.371 85.1896 202.152 84.7621C201.936 84.3345 201.827 83.8224 201.824 83.2259V78.3636H203.942V82.848C203.945 83.2988 204.066 83.6551 204.305 83.9169C204.543 84.1787 204.863 84.3097 205.264 84.3097C205.519 84.3097 205.758 84.2517 205.98 84.1357C206.202 84.0163 206.381 83.8407 206.517 83.6087C206.656 83.3767 206.724 83.09 206.721 82.7486ZM212.651 75.8182V86H210.533V75.8182H212.651ZM216.465 75.8182V86H214.347V75.8182H216.465Z" fill="white"/>
<rect x="182" y="72" width="43" height="19" rx="5" fill="#477186"/>
<path d="M200.085 75.8182V86H198.225L193.796 79.5916H193.721V86H191.569V75.8182H193.458L197.853 82.2216H197.942V75.8182H200.085ZM206.721 82.7486V78.3636H208.839V86H206.805V84.6129H206.726C206.553 85.0604 206.267 85.42 205.866 85.6918C205.468 85.9635 204.982 86.0994 204.409 86.0994C203.898 86.0994 203.449 85.9834 203.062 85.7514C202.674 85.5194 202.371 85.1896 202.152 84.7621C201.936 84.3345 201.827 83.8224 201.824 83.2259V78.3636H203.942V82.848C203.945 83.2988 204.066 83.6551 204.305 83.9169C204.543 84.1787 204.863 84.3097 205.264 84.3097C205.519 84.3097 205.758 84.2517 205.98 84.1357C206.202 84.0163 206.381 83.8407 206.517 83.6087C206.656 83.3767 206.724 83.09 206.721 82.7486ZM212.651 75.8182V86H210.533V75.8182H212.651ZM216.465 75.8182V86H214.347V75.8182H216.465Z" fill="white"/>
<rect x="169.915" y="39" width="43" height="19" rx="5" transform="rotate(24.6175 169.915 39)" fill="#477186"/>
<path d="M184.765 50.0046L180.524 59.2609L178.834 58.4864L177.476 50.8153L177.408 50.7842L174.739 56.6101L172.782 55.7134L177.023 46.457L178.74 47.244L180.068 54.8961L180.15 54.9334L182.817 49.112L184.765 50.0046ZM187.911 59.0693L189.738 55.0829L191.663 55.9651L188.482 62.9074L186.633 62.0604L187.211 60.7994L187.139 60.7662C186.796 61.1012 186.385 61.3087 185.908 61.3887C185.433 61.4701 184.935 61.3914 184.414 61.1526C183.949 60.9399 183.59 60.6474 183.334 60.2749C183.078 59.9025 182.939 59.4763 182.919 58.9965C182.901 58.5181 183.015 58.007 183.26 57.4633L185.286 53.043L187.211 53.9252L185.343 58.002C185.158 58.4132 185.12 58.7875 185.228 59.1249C185.336 59.4623 185.572 59.7146 185.936 59.8817C186.168 59.988 186.41 60.0346 186.66 60.0217C186.911 60.0057 187.147 59.9206 187.367 59.7663C187.591 59.6133 187.772 59.381 187.911 59.0693ZM196.189 55.2389L191.947 64.4953L190.022 63.6131L194.263 54.3567L196.189 55.2389ZM199.657 56.8279L195.415 66.0842L193.49 65.202L197.731 55.9456L199.657 56.8279Z" fill="white"/>
<rect x="169.915" y="39" width="43" height="19" rx="5" transform="rotate(24.6175 169.915 39)" fill="#477186"/>
<path d="M184.765 50.0046L180.524 59.2609L178.834 58.4864L177.476 50.8153L177.408 50.7842L174.739 56.6101L172.782 55.7134L177.023 46.457L178.74 47.244L180.068 54.8961L180.15 54.9334L182.817 49.112L184.765 50.0046ZM187.911 59.0693L189.738 55.0829L191.663 55.9651L188.482 62.9074L186.633 62.0604L187.211 60.7994L187.139 60.7662C186.796 61.1012 186.385 61.3087 185.908 61.3887C185.433 61.4701 184.935 61.3914 184.414 61.1526C183.949 60.9399 183.59 60.6474 183.334 60.2749C183.078 59.9025 182.939 59.4763 182.919 58.9965C182.901 58.5181 183.015 58.007 183.26 57.4633L185.286 53.043L187.211 53.9252L185.343 58.002C185.158 58.4132 185.12 58.7875 185.228 59.1249C185.336 59.4623 185.572 59.7146 185.936 59.8817C186.168 59.988 186.41 60.0346 186.66 60.0217C186.911 60.0057 187.147 59.9206 187.367 59.7663C187.591 59.6133 187.772 59.381 187.911 59.0693ZM196.189 55.2389L191.947 64.4953L190.022 63.6131L194.263 54.3567L196.189 55.2389ZM199.657 56.8279L195.415 66.0842L193.49 65.202L197.731 55.9456L199.657 56.8279Z" fill="white"/>
</svg>
