<svg width="612" height="700" viewBox="0 0 612 700" fill="none" xmlns="http://www.w3.org/2000/svg">
<line x1="314.982" y1="67.4757" x2="564.982" y2="392.476" stroke="#EDDCA8" stroke-width="5" stroke-dasharray="10 10"/>
<line x1="272.094" y1="70.3661" x2="73.0938" y2="375.366" stroke="#EDDCA8" stroke-width="5" stroke-dasharray="10 10"/>
<rect x="2.5" y="463.5" width="147" height="234" rx="17.5" fill="#113C51" stroke="#27556C" stroke-width="5" stroke-dasharray="10 10"/>
<rect x="26" y="617" width="101" height="54" rx="10" fill="#477186"/>
<rect x="26" y="538" width="101" height="54" rx="10" fill="#477186"/>
<rect x="232.5" y="463.5" width="147" height="234" rx="17.5" fill="#113C51" stroke="#27556C" stroke-width="5" stroke-dasharray="10 10"/>
<rect x="256" y="617" width="101" height="54" rx="10" fill="#477186"/>
<rect x="256" y="538" width="101" height="54" rx="10" fill="#477186"/>
<rect x="462.5" y="463.5" width="147" height="234" rx="17.5" fill="#113C51" stroke="#27556C" stroke-width="5" stroke-dasharray="10 10"/>
<rect x="486" y="617" width="101" height="54" rx="10" fill="#477186"/>
<rect x="486" y="538" width="101" height="54" rx="10" fill="#477186"/>
<line x1="127" y1="641.5" x2="230" y2="641.5" stroke="#27556C" stroke-width="5" stroke-dasharray="10 10"/>
<line x1="357" y1="641.5" x2="460" y2="641.5" stroke="#27556C" stroke-width="5" stroke-dasharray="10 10"/>
<path d="M66.1183 575.298C64.5273 575.298 63.1104 575.025 61.8675 574.478C60.6317 573.924 59.6552 573.164 58.9379 572.198C58.2276 571.225 57.8619 570.103 57.8406 568.832H62.4854C62.5138 569.364 62.6879 569.833 63.0075 570.238C63.3342 570.636 63.7674 570.945 64.3072 571.165C64.8469 571.385 65.4542 571.495 66.1289 571.495C66.832 571.495 67.4535 571.371 67.9933 571.122C68.533 570.874 68.9556 570.529 69.261 570.089C69.5664 569.648 69.7191 569.141 69.7191 568.565C69.7191 567.983 69.5558 567.468 69.229 567.021C68.9094 566.566 68.4478 566.211 67.8441 565.955C67.2475 565.7 66.5373 565.572 65.7134 565.572H63.6786V562.184H65.7134C66.4094 562.184 67.0238 562.063 67.5565 561.822C68.0962 561.58 68.5153 561.246 68.8136 560.82C69.1119 560.387 69.261 559.883 69.261 559.308C69.261 558.761 69.1296 558.281 68.8668 557.869C68.6112 557.45 68.2489 557.124 67.7802 556.889C67.3185 556.655 66.7788 556.538 66.1609 556.538C65.5359 556.538 64.9641 556.651 64.4457 556.879C63.9272 557.099 63.5117 557.415 63.1992 557.827C62.8867 558.239 62.7198 558.722 62.6985 559.276H58.2773C58.2987 558.018 58.6573 556.911 59.3533 555.952C60.0494 554.993 60.9869 554.244 62.1658 553.704C63.3519 553.157 64.6907 552.884 66.1822 552.884C67.6879 552.884 69.0053 553.157 70.1346 553.704C71.2638 554.251 72.141 554.989 72.766 555.92C73.3981 556.843 73.7106 557.88 73.7035 559.031C73.7106 560.252 73.3306 561.271 72.5636 562.088C71.8036 562.905 70.8129 563.423 69.5913 563.643V563.814C71.1964 564.02 72.418 564.577 73.256 565.487C74.1012 566.388 74.5202 567.518 74.5131 568.874C74.5202 570.117 74.1616 571.222 73.4371 572.188C72.7198 573.153 71.729 573.913 70.4648 574.467C69.2006 575.021 67.7518 575.298 66.1183 575.298ZM86.3837 575.479C84.5513 575.472 82.9746 575.021 81.6536 574.126C80.3397 573.232 79.3276 571.935 78.6174 570.238C77.9142 568.54 77.5662 566.499 77.5733 564.112C77.5733 561.733 77.9249 559.705 78.628 558.029C79.3382 556.353 80.3503 555.078 81.6642 554.205C82.9853 553.324 84.5584 552.884 86.3837 552.884C88.209 552.884 89.7786 553.324 91.0925 554.205C92.4135 555.085 93.4292 556.364 94.1394 558.04C94.8496 559.709 95.2012 561.733 95.1941 564.112C95.1941 566.506 94.839 568.551 94.1287 570.249C93.4256 571.946 92.4171 573.242 91.1032 574.137C89.7892 575.032 88.2161 575.479 86.3837 575.479ZM86.3837 571.655C87.6337 571.655 88.6316 571.026 89.3773 569.769C90.123 568.512 90.4924 566.626 90.4853 564.112C90.4853 562.457 90.3148 561.08 89.9739 559.979C89.6401 558.878 89.1642 558.05 88.5463 557.496C87.9355 556.942 87.2147 556.665 86.3837 556.665C85.1408 556.665 84.1465 557.287 83.4007 558.53C82.655 559.773 82.2786 561.634 82.2715 564.112C82.2715 565.788 82.4384 567.188 82.7722 568.31C83.1131 569.425 83.5925 570.263 84.2104 570.824C84.8283 571.378 85.5527 571.655 86.3837 571.655Z" fill="white"/>
<path d="M517.445 571.165V567.532L526.554 553.182H529.686V558.21H527.832L522.09 567.298V567.468H535.034V571.165H517.445ZM527.917 575V570.057L528.003 568.448V553.182H532.328V575H527.917ZM546.662 575.479C544.83 575.472 543.253 575.021 541.932 574.126C540.618 573.232 539.606 571.935 538.896 570.238C538.193 568.54 537.845 566.499 537.852 564.112C537.852 561.733 538.203 559.705 538.906 558.029C539.617 556.353 540.629 555.078 541.943 554.205C543.264 553.324 544.837 552.884 546.662 552.884C548.487 552.884 550.057 553.324 551.371 554.205C552.692 555.085 553.707 556.364 554.418 558.04C555.128 559.709 555.479 561.733 555.472 564.112C555.472 566.506 555.117 568.551 554.407 570.249C553.704 571.946 552.695 573.242 551.381 574.137C550.068 575.032 548.494 575.479 546.662 575.479ZM546.662 571.655C547.912 571.655 548.91 571.026 549.656 569.769C550.401 568.512 550.771 566.626 550.764 564.112C550.764 562.457 550.593 561.08 550.252 559.979C549.918 558.878 549.443 558.05 548.825 557.496C548.214 556.942 547.493 556.665 546.662 556.665C545.419 556.665 544.425 557.287 543.679 558.53C542.933 559.773 542.557 561.634 542.55 564.112C542.55 565.788 542.717 567.188 543.051 568.31C543.391 569.425 543.871 570.263 544.489 570.824C545.107 571.378 545.831 571.655 546.662 571.655Z" fill="white"/>
<path d="M287.493 575V571.676L295.259 564.485C295.92 563.846 296.474 563.271 296.921 562.759C297.376 562.248 297.72 561.747 297.955 561.257C298.189 560.76 298.306 560.224 298.306 559.648C298.306 559.009 298.161 558.459 297.869 557.997C297.578 557.528 297.181 557.17 296.676 556.921C296.172 556.665 295.6 556.538 294.961 556.538C294.294 556.538 293.711 556.673 293.214 556.942C292.717 557.212 292.333 557.599 292.063 558.104C291.794 558.608 291.659 559.208 291.659 559.904H287.28C287.28 558.477 287.603 557.237 288.249 556.186C288.896 555.135 289.801 554.322 290.966 553.746C292.131 553.171 293.473 552.884 294.993 552.884C296.556 552.884 297.916 553.161 299.073 553.714C300.238 554.261 301.144 555.021 301.79 555.994C302.436 556.967 302.759 558.082 302.759 559.339C302.759 560.163 302.596 560.977 302.269 561.779C301.95 562.582 301.378 563.473 300.554 564.453C299.73 565.426 298.569 566.594 297.07 567.958L293.885 571.08V571.229H303.047V575H287.493ZM314.944 575.479C313.112 575.472 311.535 575.021 310.214 574.126C308.9 573.232 307.888 571.935 307.178 570.238C306.475 568.54 306.127 566.499 306.134 564.112C306.134 561.733 306.485 559.705 307.189 558.029C307.899 556.353 308.911 555.078 310.225 554.205C311.546 553.324 313.119 552.884 314.944 552.884C316.77 552.884 318.339 553.324 319.653 554.205C320.974 555.085 321.99 556.364 322.7 558.04C323.41 559.709 323.762 561.733 323.755 564.112C323.755 566.506 323.4 568.551 322.689 570.249C321.986 571.946 320.978 573.242 319.664 574.137C318.35 575.032 316.777 575.479 314.944 575.479ZM314.944 571.655C316.194 571.655 317.192 571.026 317.938 569.769C318.684 568.512 319.053 566.626 319.046 564.112C319.046 562.457 318.875 561.08 318.534 559.979C318.201 558.878 317.725 558.05 317.107 557.496C316.496 556.942 315.775 556.665 314.944 556.665C313.701 556.665 312.707 557.287 311.961 558.53C311.216 559.773 310.839 561.634 310.832 564.112C310.832 565.788 310.999 567.188 311.333 568.31C311.674 569.425 312.153 570.263 312.771 570.824C313.389 571.378 314.113 571.655 314.944 571.655Z" fill="white"/>
<path d="M62.3536 632.182V654H58.3692L48.877 640.268H48.7172V654H44.1043V632.182H48.1526L57.5702 645.903H57.762V632.182H62.3536ZM73.537 654.32C71.8538 654.32 70.4049 653.979 69.1904 653.297C67.983 652.608 67.0526 651.635 66.3992 650.378C65.7458 649.114 65.4191 647.619 65.4191 645.893C65.4191 644.21 65.7458 642.732 66.3992 641.461C67.0526 640.19 67.9724 639.199 69.1585 638.489C70.3517 637.778 71.7508 637.423 73.3559 637.423C74.4355 637.423 75.4404 637.597 76.3708 637.945C77.3083 638.286 78.1251 638.801 78.8211 639.49C79.5242 640.179 80.0711 641.045 80.4617 642.089C80.8524 643.126 81.0477 644.341 81.0477 645.733V646.979H67.2302V644.167H76.7757C76.7757 643.513 76.6336 642.935 76.3495 642.43C76.0654 641.926 75.6713 641.532 75.167 641.248C74.6698 640.957 74.091 640.811 73.4305 640.811C72.7416 640.811 72.1308 640.971 71.5981 641.29C71.0725 641.603 70.6606 642.026 70.3623 642.558C70.064 643.084 69.9113 643.67 69.9042 644.316V646.99C69.9042 647.8 70.0534 648.499 70.3517 649.089C70.657 649.678 71.0867 650.133 71.6407 650.452C72.1947 650.772 72.8517 650.932 73.6116 650.932C74.1159 650.932 74.5775 650.861 74.9965 650.719C75.4156 650.577 75.7742 650.364 76.0725 650.08C76.3708 649.795 76.5981 649.447 76.7544 649.036L80.9518 649.312C80.7387 650.321 80.3019 651.202 79.6414 651.955C78.988 652.7 78.1428 653.283 77.1059 653.702C76.0761 654.114 74.8865 654.32 73.537 654.32ZM87.509 637.636L90.5132 643.357L93.5921 637.636H98.2476L93.5068 645.818L98.3754 654H93.7412L90.5132 648.343L87.3385 654H82.651L87.509 645.818L82.8215 637.636H87.509ZM109.647 637.636V641.045H99.7923V637.636H109.647ZM102.03 633.716H106.568V648.972C106.568 649.391 106.632 649.717 106.76 649.952C106.888 650.179 107.065 650.339 107.292 650.431C107.527 650.523 107.797 650.57 108.102 650.57C108.315 650.57 108.528 650.552 108.741 650.516C108.954 650.474 109.118 650.442 109.231 650.42L109.945 653.798C109.718 653.869 109.398 653.95 108.986 654.043C108.574 654.142 108.074 654.202 107.484 654.224C106.39 654.266 105.432 654.121 104.608 653.787C103.791 653.453 103.155 652.935 102.701 652.232C102.246 651.528 102.022 650.641 102.03 649.568V633.716Z" fill="white"/>
<path d="M522.354 632.182V654H518.369L508.877 640.268H508.717V654H504.104V632.182H508.153L517.57 645.903H517.762V632.182H522.354ZM533.537 654.32C531.854 654.32 530.405 653.979 529.19 653.297C527.983 652.608 527.053 651.635 526.399 650.378C525.746 649.114 525.419 647.619 525.419 645.893C525.419 644.21 525.746 642.732 526.399 641.461C527.053 640.19 527.972 639.199 529.158 638.489C530.352 637.778 531.751 637.423 533.356 637.423C534.435 637.423 535.44 637.597 536.371 637.945C537.308 638.286 538.125 638.801 538.821 639.49C539.524 640.179 540.071 641.045 540.462 642.089C540.852 643.126 541.048 644.341 541.048 645.733V646.979H527.23V644.167H536.776C536.776 643.513 536.634 642.935 536.35 642.43C536.065 641.926 535.671 641.532 535.167 641.248C534.67 640.957 534.091 640.811 533.43 640.811C532.742 640.811 532.131 640.971 531.598 641.29C531.073 641.603 530.661 642.026 530.362 642.558C530.064 643.084 529.911 643.67 529.904 644.316V646.99C529.904 647.8 530.053 648.499 530.352 649.089C530.657 649.678 531.087 650.133 531.641 650.452C532.195 650.772 532.852 650.932 533.612 650.932C534.116 650.932 534.578 650.861 534.997 650.719C535.416 650.577 535.774 650.364 536.073 650.08C536.371 649.795 536.598 649.447 536.754 649.036L540.952 649.312C540.739 650.321 540.302 651.202 539.641 651.955C538.988 652.7 538.143 653.283 537.106 653.702C536.076 654.114 534.886 654.32 533.537 654.32ZM547.509 637.636L550.513 643.357L553.592 637.636H558.248L553.507 645.818L558.375 654H553.741L550.513 648.343L547.339 654H542.651L547.509 645.818L542.821 637.636H547.509ZM569.647 637.636V641.045H559.792V637.636H569.647ZM562.03 633.716H566.568V648.972C566.568 649.391 566.632 649.717 566.76 649.952C566.888 650.179 567.065 650.339 567.292 650.431C567.527 650.523 567.797 650.57 568.102 650.57C568.315 650.57 568.528 650.552 568.741 650.516C568.954 650.474 569.118 650.442 569.231 650.42L569.945 653.798C569.718 653.869 569.398 653.95 568.986 654.043C568.574 654.142 568.074 654.202 567.484 654.224C566.39 654.266 565.432 654.121 564.608 653.787C563.791 653.453 563.155 652.935 562.701 652.232C562.246 651.528 562.022 650.641 562.03 649.568V633.716Z" fill="white"/>
<path d="M62.3536 632.182V654H58.3692L48.877 640.268H48.7172V654H44.1043V632.182H48.1526L57.5702 645.903H57.762V632.182H62.3536ZM73.537 654.32C71.8538 654.32 70.4049 653.979 69.1904 653.297C67.983 652.608 67.0526 651.635 66.3992 650.378C65.7458 649.114 65.4191 647.619 65.4191 645.893C65.4191 644.21 65.7458 642.732 66.3992 641.461C67.0526 640.19 67.9724 639.199 69.1585 638.489C70.3517 637.778 71.7508 637.423 73.3559 637.423C74.4355 637.423 75.4404 637.597 76.3708 637.945C77.3083 638.286 78.1251 638.801 78.8211 639.49C79.5242 640.179 80.0711 641.045 80.4617 642.089C80.8524 643.126 81.0477 644.341 81.0477 645.733V646.979H67.2302V644.167H76.7757C76.7757 643.513 76.6336 642.935 76.3495 642.43C76.0654 641.926 75.6713 641.532 75.167 641.248C74.6698 640.957 74.091 640.811 73.4305 640.811C72.7416 640.811 72.1308 640.971 71.5981 641.29C71.0725 641.603 70.6606 642.026 70.3623 642.558C70.064 643.084 69.9113 643.67 69.9042 644.316V646.99C69.9042 647.8 70.0534 648.499 70.3517 649.089C70.657 649.678 71.0867 650.133 71.6407 650.452C72.1947 650.772 72.8517 650.932 73.6116 650.932C74.1159 650.932 74.5775 650.861 74.9965 650.719C75.4156 650.577 75.7742 650.364 76.0725 650.08C76.3708 649.795 76.5981 649.447 76.7544 649.036L80.9518 649.312C80.7387 650.321 80.3019 651.202 79.6414 651.955C78.988 652.7 78.1428 653.283 77.1059 653.702C76.0761 654.114 74.8865 654.32 73.537 654.32ZM87.509 637.636L90.5132 643.357L93.5921 637.636H98.2476L93.5068 645.818L98.3754 654H93.7412L90.5132 648.343L87.3385 654H82.651L87.509 645.818L82.8215 637.636H87.509ZM109.647 637.636V641.045H99.7923V637.636H109.647ZM102.03 633.716H106.568V648.972C106.568 649.391 106.632 649.717 106.76 649.952C106.888 650.179 107.065 650.339 107.292 650.431C107.527 650.523 107.797 650.57 108.102 650.57C108.315 650.57 108.528 650.552 108.741 650.516C108.954 650.474 109.118 650.442 109.231 650.42L109.945 653.798C109.718 653.869 109.398 653.95 108.986 654.043C108.574 654.142 108.074 654.202 107.484 654.224C106.39 654.266 105.432 654.121 104.608 653.787C103.791 653.453 103.155 652.935 102.701 652.232C102.246 651.528 102.022 650.641 102.03 649.568V633.716Z" fill="white"/>
<path d="M292.354 632.182V654H288.369L278.877 640.268H278.717V654H274.104V632.182H278.153L287.57 645.903H287.762V632.182H292.354ZM303.537 654.32C301.854 654.32 300.405 653.979 299.19 653.297C297.983 652.608 297.053 651.635 296.399 650.378C295.746 649.114 295.419 647.619 295.419 645.893C295.419 644.21 295.746 642.732 296.399 641.461C297.053 640.19 297.972 639.199 299.158 638.489C300.352 637.778 301.751 637.423 303.356 637.423C304.435 637.423 305.44 637.597 306.371 637.945C307.308 638.286 308.125 638.801 308.821 639.49C309.524 640.179 310.071 641.045 310.462 642.089C310.852 643.126 311.048 644.341 311.048 645.733V646.979H297.23V644.167H306.776C306.776 643.513 306.634 642.935 306.35 642.43C306.065 641.926 305.671 641.532 305.167 641.248C304.67 640.957 304.091 640.811 303.43 640.811C302.742 640.811 302.131 640.971 301.598 641.29C301.073 641.603 300.661 642.026 300.362 642.558C300.064 643.084 299.911 643.67 299.904 644.316V646.99C299.904 647.8 300.053 648.499 300.352 649.089C300.657 649.678 301.087 650.133 301.641 650.452C302.195 650.772 302.852 650.932 303.612 650.932C304.116 650.932 304.578 650.861 304.997 650.719C305.416 650.577 305.774 650.364 306.073 650.08C306.371 649.795 306.598 649.447 306.754 649.036L310.952 649.312C310.739 650.321 310.302 651.202 309.641 651.955C308.988 652.7 308.143 653.283 307.106 653.702C306.076 654.114 304.886 654.32 303.537 654.32ZM317.509 637.636L320.513 643.357L323.592 637.636H328.248L323.507 645.818L328.375 654H323.741L320.513 648.343L317.339 654H312.651L317.509 645.818L312.821 637.636H317.509ZM339.647 637.636V641.045H329.792V637.636H339.647ZM332.03 633.716H336.568V648.972C336.568 649.391 336.632 649.717 336.76 649.952C336.888 650.179 337.065 650.339 337.292 650.431C337.527 650.523 337.797 650.57 338.102 650.57C338.315 650.57 338.528 650.552 338.741 650.516C338.954 650.474 339.118 650.442 339.231 650.42L339.945 653.798C339.718 653.869 339.398 653.95 338.986 654.043C338.574 654.142 338.074 654.202 337.484 654.224C336.39 654.266 335.432 654.121 334.608 653.787C333.791 653.453 333.155 652.935 332.701 652.232C332.246 651.528 332.022 650.641 332.03 649.568V633.716Z" fill="white"/>
<path d="M338.861 33.9289C339.796 36.9205 340.44 40.0363 340.763 43.2449L338.275 43.4946C338.424 44.976 338.5 46.4789 338.5 48C338.5 49.5211 338.424 51.024 338.275 52.5054L340.763 52.7551C340.44 55.9637 339.796 59.0795 338.861 62.0711L336.475 61.3253C335.571 64.2172 334.38 66.9875 332.934 69.6044L335.123 70.8133C333.583 73.5993 331.771 76.2193 329.721 78.6389L327.814 77.0226C325.87 79.3164 323.7 81.4211 321.337 83.3036L322.895 85.259C320.424 87.2271 317.754 88.9643 314.919 90.4367L313.767 88.218C311.117 89.5942 308.315 90.7268 305.391 91.5855L306.096 93.9841C303.094 94.866 299.971 95.4735 296.756 95.7768L296.522 93.2878C295.034 93.4281 293.526 93.5 292 93.5C290.474 93.5 288.966 93.4281 287.478 93.2878L287.244 95.7767C284.029 95.4735 280.906 94.866 277.904 93.9841L278.609 91.5855C275.685 90.7268 272.883 89.5942 270.233 88.218L269.081 90.4367C266.246 88.9643 263.576 87.2271 261.105 85.2589L262.663 83.3036C260.3 81.4211 258.13 79.3164 256.186 77.0226L254.279 78.6389C252.229 76.2193 250.417 73.5993 248.877 70.8133L251.066 69.6044C249.62 66.9875 248.429 64.2172 247.525 61.3253L245.139 62.0711C244.204 59.0795 243.56 55.9637 243.237 52.7551L245.725 52.5054C245.576 51.024 245.5 49.5211 245.5 48C245.5 46.4789 245.576 44.976 245.725 43.4946L243.237 43.2449C243.56 40.0363 244.204 36.9205 245.139 33.9289L247.525 34.6747C248.429 31.7828 249.62 29.0125 251.066 26.3956L248.877 25.1866C250.417 22.4007 252.229 19.7807 254.279 17.3611L256.186 18.9774C258.13 16.6836 260.3 14.5789 262.663 12.6964L261.105 10.741C263.576 8.77286 266.246 7.03574 269.081 5.56331L270.233 7.78196C272.883 6.40583 275.685 5.27318 278.609 4.41451L277.904 2.01585C280.906 1.13398 284.029 0.52653 287.244 0.223247L287.478 2.71219C288.966 2.57186 290.474 2.5 292 2.5C293.526 2.5 295.034 2.57186 296.522 2.71219L296.756 0.223248C299.971 0.526531 303.094 1.13398 306.096 2.01585L305.391 4.41451C308.315 5.27319 311.117 6.40583 313.767 7.78196L314.919 5.56331C317.754 7.03575 320.424 8.77286 322.895 10.7411L321.337 12.6964C323.7 14.5789 325.87 16.6836 327.814 18.9774L329.721 17.3611C331.771 19.7807 333.583 22.4007 335.123 25.1867L332.934 26.3956C334.38 29.0125 335.571 31.7828 336.475 34.6747L338.861 33.9289Z" fill="#71AA97" stroke="#EDDCA8" stroke-width="5" stroke-dasharray="10 10"/>
<path d="M609.861 388.929C610.796 391.92 611.44 395.036 611.763 398.245L609.275 398.495C609.424 399.976 609.5 401.479 609.5 403C609.5 404.521 609.424 406.024 609.275 407.505L611.763 407.755C611.44 410.964 610.796 414.08 609.861 417.071L607.475 416.325C606.571 419.217 605.38 421.987 603.934 424.604L606.123 425.813C604.583 428.599 602.771 431.219 600.721 433.639L598.814 432.023C596.87 434.316 594.7 436.421 592.337 438.304L593.895 440.259C591.424 442.227 588.754 443.964 585.919 445.437L584.767 443.218C582.117 444.594 579.315 445.727 576.391 446.585L577.096 448.984C574.094 449.866 570.971 450.473 567.756 450.777L567.522 448.288C566.034 448.428 564.526 448.5 563 448.5C561.474 448.5 559.966 448.428 558.478 448.288L558.244 450.777C555.029 450.473 551.906 449.866 548.904 448.984L549.609 446.585C546.685 445.727 543.883 444.594 541.233 443.218L540.081 445.437C537.246 443.964 534.576 442.227 532.105 440.259L533.663 438.304C531.3 436.421 529.13 434.316 527.186 432.023L525.279 433.639C523.229 431.219 521.417 428.599 519.877 425.813L522.066 424.604C520.62 421.987 519.429 419.217 518.525 416.325L516.139 417.071C515.204 414.08 514.56 410.964 514.237 407.755L516.725 407.505C516.576 406.024 516.5 404.521 516.5 403C516.5 401.479 516.576 399.976 516.725 398.495L514.237 398.245C514.56 395.036 515.204 391.92 516.139 388.929L518.525 389.675C519.429 386.783 520.62 384.013 522.066 381.396L519.877 380.187C521.417 377.401 523.229 374.781 525.279 372.361L527.186 373.977C529.13 371.684 531.3 369.579 533.663 367.696L532.105 365.741C534.576 363.773 537.246 362.036 540.081 360.563L541.233 362.782C543.883 361.406 546.685 360.273 549.609 359.415L548.904 357.016C551.906 356.134 555.029 355.527 558.244 355.223L558.478 357.712C559.966 357.572 561.474 357.5 563 357.5C564.526 357.5 566.034 357.572 567.522 357.712L567.756 355.223C570.971 355.527 574.094 356.134 577.096 357.016L576.391 359.415C579.315 360.273 582.117 361.406 584.767 362.782L585.919 360.563C588.754 362.036 591.424 363.773 593.895 365.741L592.337 367.696C594.7 369.579 596.87 371.684 598.814 373.977L600.721 372.361C602.771 374.781 604.583 377.401 606.123 380.187L603.934 381.396C605.38 384.013 606.571 386.783 607.475 389.675L609.861 388.929Z" fill="#71AA97" stroke="#EDDCA8" stroke-width="5" stroke-dasharray="10 10"/>
<path d="M95.8609 376.929C96.7959 379.92 97.4405 383.036 97.7626 386.245L95.2751 386.495C95.4238 387.976 95.5 389.479 95.5 391C95.5 392.521 95.4238 394.024 95.2751 395.505L97.7626 395.755C97.4405 398.964 96.7959 402.08 95.8609 405.071L93.4747 404.325C92.5709 407.217 91.3802 409.987 89.9344 412.604L92.1227 413.813C90.5835 416.599 88.7712 419.219 86.7209 421.639L84.8136 420.023C82.8698 422.316 80.6999 424.421 78.3369 426.304L79.8946 428.259C77.4241 430.227 74.754 431.964 71.9188 433.437L70.7665 431.218C68.1167 432.594 65.3147 433.727 62.3915 434.585L63.0961 436.984C60.0939 437.866 56.9705 438.473 53.7564 438.777L53.5216 436.288C52.0344 436.428 50.5261 436.5 49 436.5C47.4739 436.5 45.9656 436.428 44.4784 436.288L44.2435 438.777C41.0295 438.473 37.9061 437.866 34.9039 436.984L35.6085 434.585C32.6853 433.727 29.8833 432.594 27.2335 431.218L26.0812 433.437C23.246 431.964 20.5759 430.227 18.1054 428.259L19.6631 426.304C17.3001 424.421 15.1302 422.316 13.1864 420.023L11.2791 421.639C9.22882 419.219 7.41651 416.599 5.87734 413.813L8.06559 412.604C6.61982 409.987 5.42909 407.217 4.52529 404.325L2.13911 405.071C1.20415 402.08 0.55952 398.964 0.237411 395.755L2.72491 395.505C2.57619 394.024 2.5 392.521 2.5 391C2.5 389.479 2.57619 387.976 2.72491 386.495L0.237411 386.245C0.559521 383.036 1.20415 379.92 2.13911 376.929L4.52529 377.675C5.4291 374.783 6.61983 372.013 8.06559 369.396L5.87734 368.187C7.41651 365.401 9.22883 362.781 11.2791 360.361L13.1864 361.977C15.1302 359.684 17.3001 357.579 19.6631 355.696L18.1054 353.741C20.5759 351.773 23.246 350.036 26.0812 348.563L27.2335 350.782C29.8833 349.406 32.6853 348.273 35.6085 347.415L34.9039 345.016C37.9061 344.134 41.0295 343.527 44.2436 343.223L44.4784 345.712C45.9656 345.572 47.4739 345.5 49 345.5C50.5261 345.5 52.0344 345.572 53.5216 345.712L53.7565 343.223C56.9705 343.527 60.0939 344.134 63.0961 345.016L62.3915 347.415C65.3147 348.273 68.1167 349.406 70.7665 350.782L71.9188 348.563C74.754 350.036 77.4241 351.773 79.8946 353.741L78.3369 355.696C80.6999 357.579 82.8698 359.684 84.8136 361.977L86.7209 360.361C88.7712 362.781 90.5835 365.401 92.1227 368.187L89.9344 369.396C91.3802 372.013 92.5709 374.783 93.4747 377.675L95.8609 376.929Z" fill="#71AA97" stroke="#EDDCA8" stroke-width="5" stroke-dasharray="10 10"/>
<path d="M285.095 35.1818V57H280.482V39.5604H280.354L275.357 42.6925V38.6016L280.759 35.1818H285.095ZM298.835 57.4794C297.002 57.4723 295.426 57.0213 294.105 56.1264C292.791 55.2315 291.779 53.9354 291.069 52.2379C290.365 50.5405 290.017 48.4986 290.025 46.1122C290.025 43.733 290.376 41.7053 291.079 40.0291C291.789 38.353 292.801 37.0781 294.115 36.2045C295.436 35.3239 297.01 34.8835 298.835 34.8835C300.66 34.8835 302.23 35.3239 303.544 36.2045C304.865 37.0852 305.88 38.3636 306.591 40.0398C307.301 41.7088 307.652 43.733 307.645 46.1122C307.645 48.5057 307.29 50.5511 306.58 52.2486C305.877 53.946 304.868 55.2422 303.554 56.1371C302.24 57.032 300.667 57.4794 298.835 57.4794ZM298.835 53.6548C300.085 53.6548 301.083 53.0263 301.828 51.7692C302.574 50.5121 302.944 48.6264 302.936 46.1122C302.936 44.4574 302.766 43.0795 302.425 41.9787C302.091 40.8778 301.615 40.0504 300.998 39.4964C300.387 38.9425 299.666 38.6655 298.835 38.6655C297.592 38.6655 296.598 39.2869 295.852 40.5298C295.106 41.7727 294.73 43.6335 294.723 46.1122C294.723 47.7884 294.89 49.1875 295.223 50.3097C295.564 51.4247 296.044 52.2628 296.662 52.8239C297.279 53.3778 298.004 53.6548 298.835 53.6548Z" fill="white"/>
<path d="M544.493 412V408.676L552.259 401.485C552.92 400.846 553.474 400.271 553.921 399.759C554.376 399.248 554.72 398.747 554.955 398.257C555.189 397.76 555.306 397.224 555.306 396.648C555.306 396.009 555.161 395.459 554.869 394.997C554.578 394.528 554.181 394.17 553.676 393.921C553.172 393.665 552.6 393.538 551.961 393.538C551.294 393.538 550.711 393.673 550.214 393.942C549.717 394.212 549.333 394.599 549.063 395.104C548.794 395.608 548.659 396.208 548.659 396.904H544.28C544.28 395.477 544.603 394.237 545.249 393.186C545.896 392.135 546.801 391.322 547.966 390.746C549.131 390.171 550.473 389.884 551.993 389.884C553.556 389.884 554.916 390.161 556.073 390.714C557.238 391.261 558.144 392.021 558.79 392.994C559.436 393.967 559.759 395.082 559.759 396.339C559.759 397.163 559.596 397.977 559.269 398.779C558.95 399.582 558.378 400.473 557.554 401.453C556.73 402.426 555.569 403.594 554.07 404.958L550.885 408.08V408.229H560.047V412H544.493ZM571.944 412.479C570.112 412.472 568.535 412.021 567.214 411.126C565.9 410.232 564.888 408.935 564.178 407.238C563.475 405.54 563.127 403.499 563.134 401.112C563.134 398.733 563.485 396.705 564.189 395.029C564.899 393.353 565.911 392.078 567.225 391.205C568.546 390.324 570.119 389.884 571.944 389.884C573.77 389.884 575.339 390.324 576.653 391.205C577.974 392.085 578.99 393.364 579.7 395.04C580.41 396.709 580.762 398.733 580.755 401.112C580.755 403.506 580.4 405.551 579.689 407.249C578.986 408.946 577.978 410.242 576.664 411.137C575.35 412.032 573.777 412.479 571.944 412.479ZM571.944 408.655C573.194 408.655 574.192 408.026 574.938 406.769C575.684 405.512 576.053 403.626 576.046 401.112C576.046 399.457 575.875 398.08 575.534 396.979C575.201 395.878 574.725 395.05 574.107 394.496C573.496 393.942 572.775 393.665 571.944 393.665C570.701 393.665 569.707 394.287 568.961 395.53C568.216 396.773 567.839 398.634 567.832 401.112C567.832 402.788 567.999 404.188 568.333 405.31C568.674 406.425 569.153 407.263 569.771 407.824C570.389 408.378 571.113 408.655 571.944 408.655Z" fill="white"/>
<path d="M49.5692 403.298C48.0636 403.298 46.7212 403.021 45.5423 402.467C44.3704 401.913 43.44 401.15 42.7511 400.177C42.0621 399.204 41.7035 398.089 41.6751 396.832H46.1495C46.1992 397.677 46.5543 398.362 47.2148 398.888C47.8754 399.413 48.6602 399.676 49.5692 399.676C50.2937 399.676 50.9329 399.516 51.4869 399.197C52.0479 398.87 52.4847 398.419 52.7972 397.844C53.1168 397.261 53.2766 396.594 53.2766 395.841C53.2766 395.074 53.1133 394.399 52.7866 393.817C52.467 393.234 52.0231 392.78 51.4549 392.453C50.8867 392.126 50.2369 391.96 49.5053 391.952C48.8661 391.952 48.2447 392.084 47.641 392.347C47.0444 392.609 46.5792 392.968 46.2454 393.423L42.1438 392.688L43.1772 381.182H56.5153V384.953H46.9805L46.4158 390.418H46.5437C46.9272 389.879 47.506 389.431 48.2802 389.076C49.0543 388.721 49.9208 388.543 50.8796 388.543C52.1935 388.543 53.3654 388.852 54.3952 389.47C55.4251 390.088 56.2383 390.937 56.8349 392.016C57.4315 393.089 57.7262 394.325 57.7191 395.724C57.7262 397.194 57.3853 398.501 56.6964 399.644C56.0146 400.781 55.0593 401.675 53.8306 402.329C52.609 402.975 51.1886 403.298 49.5692 403.298Z" fill="white"/>
</svg>
