<svg width="188" height="145" viewBox="0 0 188 145" fill="none" xmlns="http://www.w3.org/2000/svg">
<rect x="44" y="111" width="50" height="24" rx="5" fill="#477186"/>
<path d="M63.407 115.455V130H60.7507L54.4226 120.845H54.3161V130H51.2408V115.455H53.9396L60.218 124.602H60.3459V115.455H63.407ZM72.8867 125.355V119.091H75.9123V130H73.0075V128.018H72.8938C72.6476 128.658 72.238 129.171 71.6651 129.56C71.0969 129.948 70.4033 130.142 69.5842 130.142C68.855 130.142 68.2134 129.976 67.6594 129.645C67.1055 129.313 66.6722 128.842 66.3597 128.232C66.052 127.621 65.8957 126.889 65.891 126.037V119.091H68.9165V125.497C68.9213 126.141 69.0941 126.65 69.435 127.024C69.7759 127.398 70.2328 127.585 70.8058 127.585C71.1703 127.585 71.5112 127.502 71.8285 127.337C72.1457 127.166 72.4014 126.915 72.5955 126.584C72.7944 126.252 72.8915 125.843 72.8867 125.355ZM81.358 115.455V130H78.3324V115.455H81.358ZM86.8072 115.455V130H83.7816V115.455H86.8072Z" fill="white"/>
<rect x="70" width="50" height="24" rx="5" fill="#477186"/>
<path d="M89.407 4.45455V19H86.7507L80.4226 9.84517H80.3161V19H77.2408V4.45455H79.9396L86.218 13.6023H86.3459V4.45455H89.407ZM98.8867 14.3551V8.09091H101.912V19H99.0075V17.0185H98.8938C98.6476 17.6577 98.238 18.1714 97.6651 18.5597C97.0969 18.9479 96.4033 19.142 95.5842 19.142C94.855 19.142 94.2134 18.9763 93.6594 18.6449C93.1055 18.3134 92.6722 17.8423 92.3597 17.2315C92.052 16.6207 91.8957 15.8892 91.891 15.0369V8.09091H94.9165V14.4972C94.9213 15.1411 95.0941 15.6501 95.435 16.0241C95.7759 16.3982 96.2328 16.5852 96.8058 16.5852C97.1703 16.5852 97.5112 16.5024 97.8285 16.3366C98.1457 16.1662 98.4014 15.9152 98.5955 15.5838C98.7944 15.2524 98.8915 14.8428 98.8867 14.3551ZM107.358 4.45455V19H104.332V4.45455H107.358ZM112.807 4.45455V19H109.782V4.45455H112.807Z" fill="white"/>
<rect x="120.463" y="19.5795" width="50" height="24" rx="5" transform="rotate(35.4182 120.463 19.5795)" fill="#477186"/>
<path d="M133.697 34.4568L125.267 46.3106L123.102 44.7712L123.251 33.6431L123.164 33.5814L117.858 41.042L115.352 39.2598L123.782 27.4061L125.981 28.9702L125.796 40.0636L125.9 40.1377L131.202 32.6828L133.697 34.4568ZM135.684 48.0192L139.315 42.9142L141.78 44.6676L135.458 53.5579L133.091 51.8744L134.239 50.2596L134.146 50.1938C133.575 50.572 132.944 50.7533 132.252 50.7377C131.564 50.7248 130.886 50.481 130.219 50.0063C129.624 49.5837 129.198 49.0768 128.938 48.4857C128.679 47.8945 128.599 47.2595 128.698 46.5806C128.801 45.9045 129.098 45.2178 129.588 44.5205L133.613 38.8599L136.079 40.6133L132.366 45.834C131.997 46.3616 131.843 46.8765 131.904 47.3789C131.965 47.8813 132.229 48.2985 132.696 48.6306C132.993 48.8419 133.319 48.9719 133.673 49.0207C134.031 49.0656 134.385 49.0093 134.735 48.8517C135.089 48.6969 135.405 48.4193 135.684 48.0192ZM148.326 44.8602L139.896 56.7139L137.43 54.9605L145.86 43.1067L148.326 44.8602ZM152.766 48.0182L144.337 59.8719L141.871 58.1185L150.301 46.2648L152.766 48.0182Z" fill="white"/>
<rect x="143.796" y="90.5163" width="50" height="24" rx="5" transform="rotate(31.0837 143.796 90.5163)" fill="#E5F1E3"/>
<path d="M158.117 104.351L150.607 116.808L148.332 115.436L147.639 104.329L147.548 104.274L142.822 112.114L140.188 110.526L147.697 98.0696L150.009 99.4629L150.663 110.539L150.772 110.605L155.495 102.77L158.117 104.351ZM161.124 117.724L164.358 112.359L166.949 113.921L161.317 123.264L158.829 121.764L159.852 120.067L159.755 120.009C159.214 120.429 158.598 120.658 157.907 120.694C157.22 120.733 156.526 120.542 155.824 120.119C155.2 119.742 154.736 119.269 154.432 118.699C154.129 118.129 154.001 117.502 154.049 116.818C154.101 116.136 154.345 115.429 154.781 114.696L158.367 108.748L160.958 110.31L157.65 115.796C157.322 116.35 157.207 116.875 157.306 117.371C157.405 117.868 157.7 118.264 158.19 118.56C158.503 118.748 158.837 118.853 159.194 118.875C159.554 118.893 159.903 118.81 160.24 118.626C160.582 118.445 160.876 118.144 161.124 117.724ZM173.49 113.619L165.981 126.076L163.389 124.514L170.899 112.057L173.49 113.619ZM178.157 116.432L170.647 128.889L168.056 127.327L175.566 114.87L178.157 116.432Z" fill="#35635B"/>
<rect x="31.8722" y="46.9468" width="50" height="24" rx="5" transform="rotate(-29.2849 31.8722 46.9468)" fill="#E5F1E3"/>
<path d="M50.9779 41.3391L58.0928 54.0256L55.776 55.3249L45.7786 50.4355L45.6856 50.4876L50.1637 58.4724L47.4815 59.9767L40.3665 47.2902L42.7205 45.9701L52.6711 50.8776L52.7826 50.815L48.308 42.8364L50.9779 41.3391ZM64.089 45.3373L61.0248 39.8737L63.6637 38.3937L68.9999 47.9086L66.4664 49.3295L65.4971 47.6012L65.398 47.6568C65.4959 48.3347 65.39 48.9831 65.0802 49.602C64.7745 50.2186 64.2645 50.7272 63.55 51.1279C62.9141 51.4846 62.2734 51.6538 61.6281 51.6357C60.9828 51.6176 60.3745 51.4187 59.8032 51.0388C59.236 50.6566 58.7418 50.095 58.3208 49.3539L54.9232 43.2956L57.5621 41.8157L60.6957 47.4032C61.0148 47.9625 61.4145 48.3219 61.8948 48.4814C62.3751 48.6409 62.8651 48.5805 63.3648 48.3003C63.6828 48.122 63.9396 47.8829 64.1353 47.5832C64.3286 47.2794 64.4288 46.9354 64.436 46.5514C64.4473 46.165 64.3317 45.7603 64.089 45.3373ZM66.6347 32.5583L73.7496 45.2448L71.1107 46.7248L63.9958 34.0383L66.6347 32.5583ZM71.3875 29.8928L78.5024 42.5793L75.8635 44.0593L68.7486 31.3728L71.3875 29.8928Z" fill="#35635B"/>
<rect x="86.3252" y="39.3477" width="50" height="24" rx="5" transform="rotate(20.3461 86.3252 39.3477)" fill="#E5F1E3"/>
<path d="M102.973 50.2719L97.9153 63.9099L95.4248 62.9863L92.6745 52.2024L92.5746 52.1654L89.3916 60.7491L86.5081 59.6798L91.5654 46.0419L94.0959 46.9802L96.8021 57.7402L96.9219 57.7846L100.102 49.2076L102.973 50.2719ZM108.419 62.8508L110.597 56.9774L113.433 58.0294L109.64 68.2578L106.917 67.2479L107.606 65.39L107.499 65.3504C107.046 65.8642 106.483 66.2034 105.811 66.3683C105.144 66.5348 104.426 66.4756 103.658 66.1908C102.974 65.9373 102.43 65.5588 102.026 65.0555C101.622 64.5521 101.379 63.9597 101.299 63.2784C101.223 62.5987 101.33 61.8585 101.622 61.0577L104.037 54.5451L106.874 55.597L104.647 61.6036C104.427 62.209 104.412 62.7463 104.602 63.2156C104.792 63.6848 105.155 64.019 105.692 64.2182C106.034 64.345 106.382 64.3858 106.737 64.3408C107.094 64.2912 107.421 64.1448 107.718 63.9016C108.02 63.66 108.253 63.3097 108.419 62.8508ZM119.804 56.5133L114.746 70.1512L111.91 69.0993L116.967 55.4613L119.804 56.5133ZM124.913 58.4079L119.856 72.0459L117.019 70.9939L122.076 57.356L124.913 58.4079Z" fill="#35635B"/>
<rect x="109.919" y="82.1095" width="50" height="24" rx="5" transform="rotate(-23.2226 109.919 82.1095)" fill="#E5F1E3"/>
<path d="M129.51 78.5509L135.245 91.9179L132.804 92.9653L123.379 87.0474L123.281 87.0894L126.891 95.5025L124.065 96.7151L118.33 83.3481L120.81 82.2839L130.186 88.2149L130.304 88.1645L126.697 79.7579L129.51 78.5509ZM142.126 83.9114L139.656 78.1548L142.436 76.9618L146.738 86.987L144.068 88.1324L143.287 86.3114L143.182 86.3562C143.208 87.0407 143.034 87.6743 142.661 88.257C142.292 88.8378 141.731 89.2897 140.978 89.6127C140.308 89.9002 139.653 90.0009 139.013 89.9148C138.374 89.8286 137.79 89.5665 137.262 89.1284C136.738 88.6885 136.306 88.0778 135.965 87.2965L133.227 80.9132L136.007 79.7202L138.533 85.6074C138.791 86.1973 139.151 86.5969 139.612 86.8063C140.072 87.0156 140.566 87.0073 141.093 86.7814C141.428 86.6376 141.708 86.4271 141.934 86.1497C142.159 85.868 142.295 85.5365 142.342 85.1554C142.395 84.7724 142.322 84.3577 142.126 83.9114ZM146.007 71.4728L151.742 84.8397L148.962 86.0327L143.226 72.6658L146.007 71.4728ZM151.014 69.3241L156.75 82.6911L153.969 83.8841L148.234 70.5171L151.014 69.3241Z" fill="#35635B"/>
<rect x="17.996" y="68.5556" width="50" height="24" rx="5" transform="rotate(-5.12481 17.996 68.5556)" fill="#477186"/>
<path d="M37.7233 71.2588L39.0226 85.7461L36.3769 85.9834L29.2563 77.4304L29.1502 77.4399L29.968 86.5582L26.905 86.8329L25.6057 72.3456L28.2938 72.1045L35.3642 80.6548L35.4916 80.6434L34.6744 71.5322L37.7233 71.2588ZM48.0495 80.273L47.49 74.0338L50.5034 73.7636L51.4779 84.6291L48.5847 84.8885L48.4077 82.9149L48.2945 82.9251C48.1064 83.5837 47.7443 84.132 47.2084 84.5699C46.6772 85.0073 46.0036 85.2626 45.1878 85.3358C44.4615 85.4009 43.8077 85.2932 43.2263 85.0126C42.645 84.7319 42.1714 84.3014 41.8056 83.721C41.4445 83.1401 41.2235 82.4254 41.1427 81.577L40.5222 74.6587L43.5357 74.3885L44.1079 80.7691C44.1701 81.4101 44.3877 81.9016 44.7607 82.2437C45.1337 82.5858 45.6055 82.7313 46.1761 82.6801C46.5392 82.6475 46.8714 82.5345 47.1725 82.3412C47.4733 82.143 47.7055 81.8703 47.8692 81.5228C48.0377 81.1749 48.0978 80.7583 48.0495 80.273ZM55.6025 69.6553L56.9018 84.1426L53.8883 84.4129L52.589 69.9256L55.6025 69.6553ZM61.03 69.1686L62.3292 83.6559L59.3158 83.9261L58.0165 69.4388L61.03 69.1686Z" fill="white"/>
<rect x="51.8354" y="93.0338" width="50" height="24" rx="5" transform="rotate(-33.3452 51.8354 93.0338)" fill="#477186"/>
<path d="M70.496 86.0873L78.4914 98.2382L76.2724 99.6983L65.9538 95.5291L65.8648 95.5876L70.8971 103.235L68.3281 104.926L60.3327 92.7749L62.5873 91.2913L72.8604 95.482L72.9672 95.4117L67.9389 87.7699L70.496 86.0873ZM83.8573 89.1472L80.414 83.9142L82.9415 82.2511L88.938 91.3643L86.5114 92.961L85.4222 91.3057L85.3273 91.3681C85.4729 92.0375 85.4132 92.6917 85.148 93.331C84.8868 93.9677 84.414 94.5111 83.7298 94.9614C83.1206 95.3622 82.4936 95.5764 81.8486 95.6041C81.2037 95.6317 80.5828 95.4763 79.986 95.1378C79.3931 94.7967 78.8605 94.2715 78.3881 93.5622L74.57 87.7596L77.0974 86.0965L80.6188 91.4481C80.9768 91.9835 81.4009 92.3137 81.8913 92.4388C82.3817 92.5638 82.8662 92.4689 83.3448 92.154C83.6494 91.9536 83.8886 91.697 84.0625 91.3842C84.2338 91.0674 84.3095 90.7172 84.2895 90.3336C84.2734 89.9474 84.1294 89.552 83.8573 89.1472ZM85.4918 76.22L93.4872 88.3709L90.9597 90.034L82.9643 77.8831L85.4918 76.22ZM90.044 73.2247L98.0393 85.3756L95.5119 87.0387L87.5165 74.8878L90.044 73.2247Z" fill="white"/>
<rect x="0.698288" y="124.507" width="50" height="24" rx="5" transform="rotate(-45.7104 0.698288 124.507)" fill="#477186"/>
<path d="M17.4385 113.725L27.8505 123.882L25.9956 125.784L15.0236 123.921L14.9492 123.997L21.5024 130.39L19.355 132.591L8.94306 122.434L10.8276 120.502L21.7599 122.396L21.8491 122.304L15.301 115.917L17.4385 113.725ZM31.1451 113.853L26.6611 109.479L28.7738 107.313L36.5827 114.931L34.5543 117.01L33.1359 115.626L33.0566 115.708C33.3422 116.33 33.4239 116.982 33.3018 117.663C33.183 118.341 32.8376 118.973 32.2656 119.56C31.7564 120.082 31.1898 120.425 30.5657 120.59C29.9416 120.755 29.3019 120.737 28.6464 120.534C27.9943 120.328 27.3615 119.929 26.7482 119.337L21.7761 114.487L23.8888 112.321L28.4745 116.794C28.9387 117.24 29.4238 117.472 29.9296 117.489C30.4354 117.507 30.8883 117.31 31.2884 116.9C31.543 116.639 31.7217 116.337 31.8246 115.994C31.9241 115.648 31.923 115.29 31.8213 114.92C31.7229 114.546 31.4975 114.19 31.1451 113.853ZM29.9734 100.876L40.3854 111.033L38.2727 113.198L27.8607 103.042L29.9734 100.876ZM33.7786 96.9751L44.1905 107.132L42.0778 109.298L31.6658 99.1409L33.7786 96.9751Z" fill="white"/>
<rect x="97.919" y="87.5589" width="50" height="24" rx="5" transform="rotate(33.9783 97.919 87.5589)" fill="#477186"/>
<path d="M111.523 102.099L103.393 114.161L101.191 112.676L101.06 101.548L100.971 101.488L95.8549 109.08L93.3047 107.361L101.434 95.2995L103.672 96.8079L103.766 107.902L103.872 107.974L108.984 100.388L111.523 102.099ZM113.85 115.607L117.351 110.412L119.86 112.103L113.764 121.15L111.355 119.526L112.462 117.883L112.368 117.82C111.806 118.212 111.18 118.409 110.488 118.411C109.8 118.415 109.116 118.189 108.437 117.731C107.832 117.323 107.392 116.827 107.118 116.243C106.844 115.658 106.748 115.026 106.83 114.345C106.917 113.666 107.196 112.972 107.668 112.263L111.55 106.503L114.059 108.194L110.479 113.506C110.123 114.043 109.982 114.561 110.055 115.062C110.129 115.563 110.403 115.973 110.878 116.293C111.181 116.497 111.51 116.619 111.866 116.659C112.224 116.695 112.576 116.63 112.922 116.463C113.272 116.299 113.582 116.014 113.85 115.607ZM126.408 112.131L118.279 124.193L115.77 122.502L123.9 110.44L126.408 112.131ZM130.927 115.177L122.798 127.239L120.289 125.548L128.418 113.486L130.927 115.177Z" fill="white"/>
</svg>
