<svg width="436" height="484" viewBox="0 0 436 484" fill="none" xmlns="http://www.w3.org/2000/svg">
<rect width="8" height="484" rx="4" fill="#CD9777"/>
<rect x="171" width="8" height="484" rx="4" fill="#CD9777"/>
<rect y="474" width="179" height="10" rx="5" fill="#CD9777"/>
<rect x="10.5" y="433.5" width="158" height="38" rx="2.5" fill="#9D6B53" stroke="#CD9777" stroke-width="5"/>
<path d="M82.6774 460.199C81.5694 460.199 80.5869 460.009 79.7299 459.631C78.8777 459.247 78.2053 458.719 77.7129 458.047C77.2205 457.375 76.9695 456.6 76.96 455.724H80.497C80.5112 456.042 80.613 456.323 80.8024 456.57C80.9918 456.811 81.2498 457 81.5765 457.138C81.9032 457.275 82.2749 457.344 82.6916 457.344C83.1083 457.344 83.4752 457.27 83.7924 457.124C84.1144 456.972 84.3654 456.766 84.5453 456.506C84.7252 456.241 84.8128 455.937 84.8081 455.597C84.8128 455.256 84.7157 454.953 84.5169 454.688C84.318 454.422 84.0363 454.216 83.6717 454.07C83.3118 453.923 82.8857 453.849 82.3933 453.849H80.9799V451.349H82.3933C82.8242 451.349 83.2029 451.278 83.5297 451.136C83.8611 450.994 84.1191 450.795 84.3038 450.54C84.4885 450.279 84.5784 449.981 84.5737 449.645C84.5784 449.318 84.5003 449.032 84.3393 448.786C84.1831 448.535 83.9629 448.34 83.6788 448.203C83.3994 448.066 83.0751 447.997 82.7058 447.997C82.3175 447.997 81.9648 448.066 81.6475 448.203C81.335 448.34 81.0865 448.535 80.9018 448.786C80.7172 449.036 80.6201 449.328 80.6106 449.659H77.2512C77.2607 448.793 77.5022 448.03 77.9757 447.372C78.4492 446.709 79.0931 446.191 79.9075 445.817C80.7266 445.443 81.6594 445.256 82.7058 445.256C83.7475 445.256 84.6636 445.438 85.4544 445.803C86.2451 446.167 86.8606 446.664 87.301 447.294C87.7413 447.919 87.9615 448.627 87.9615 449.418C87.9662 450.237 87.6987 450.911 87.1589 451.442C86.6239 451.972 85.935 452.299 85.0922 452.422V452.536C86.219 452.668 87.069 453.033 87.6419 453.629C88.2195 454.226 88.506 454.972 88.5012 455.866C88.5012 456.709 88.2527 457.457 87.7555 458.111C87.2631 458.759 86.5765 459.271 85.6958 459.645C84.8199 460.014 83.8137 460.199 82.6774 460.199ZM96.1664 460.199C95.0347 460.199 94.0239 460.019 93.1337 459.659C92.2483 459.295 91.5523 458.802 91.0456 458.182C90.5437 457.557 90.2928 456.851 90.2928 456.065C90.2928 455.464 90.4372 454.912 90.726 454.411C91.0149 453.909 91.4055 453.492 91.8979 453.161C92.3951 452.824 92.949 452.609 93.5598 452.514V452.401C92.7596 452.254 92.1039 451.882 91.5925 451.286C91.0859 450.689 90.8326 449.991 90.8326 449.19C90.8326 448.433 91.0622 447.758 91.5215 447.166C91.9855 446.574 92.6176 446.108 93.4178 445.767C94.2227 445.426 95.1389 445.256 96.1664 445.256C97.1938 445.256 98.1077 445.426 98.9078 445.767C99.7128 446.108 100.345 446.574 100.804 447.166C101.268 447.758 101.5 448.433 101.5 449.19C101.5 449.995 101.242 450.696 100.726 451.293C100.215 451.884 99.5636 452.254 98.7729 452.401V452.514C99.379 452.609 99.9282 452.824 100.421 453.161C100.918 453.492 101.311 453.909 101.6 454.411C101.893 454.912 102.04 455.464 102.04 456.065C102.04 456.851 101.787 457.557 101.28 458.182C100.773 458.802 100.077 459.295 99.1919 459.659C98.3113 460.019 97.3027 460.199 96.1664 460.199ZM96.1664 457.706C96.5972 457.706 96.976 457.625 97.3027 457.464C97.6294 457.299 97.8851 457.069 98.0698 456.776C98.2592 456.482 98.3539 456.151 98.3539 455.781C98.3539 455.402 98.2592 455.066 98.0698 454.773C97.8804 454.479 97.62 454.25 97.2885 454.084C96.9618 453.913 96.5878 453.828 96.1664 453.828C95.7497 453.828 95.3757 453.913 95.0442 454.084C94.7128 454.25 94.4524 454.479 94.263 454.773C94.0736 455.066 93.9789 455.402 93.9789 455.781C93.9789 456.151 94.0712 456.482 94.2559 456.776C94.4453 457.064 94.7033 457.292 95.03 457.457C95.3614 457.623 95.7402 457.706 96.1664 457.706ZM96.1664 451.349C96.5357 451.349 96.8624 451.274 97.1465 451.122C97.4353 450.971 97.6602 450.76 97.8212 450.49C97.9869 450.22 98.0698 449.915 98.0698 449.574C98.0698 449.233 97.9869 448.932 97.8212 448.672C97.6602 448.411 97.4377 448.208 97.1536 448.061C96.8695 447.91 96.5404 447.834 96.1664 447.834C95.7971 447.834 95.468 447.91 95.1792 448.061C94.8903 448.208 94.6654 448.411 94.5044 448.672C94.3435 448.932 94.263 449.233 94.263 449.574C94.263 449.915 94.3435 450.22 94.5044 450.49C94.6702 450.755 94.8974 450.966 95.1863 451.122C95.4751 451.274 95.8018 451.349 96.1664 451.349Z" fill="#774936"/>
<rect x="10.5" y="390.5" width="158" height="38" rx="2.5" fill="#9D6B53" stroke="#CD9777" stroke-width="5"/>
<path d="M89.3198 402.256C90.1152 402.256 90.8752 402.386 91.5996 402.646C92.324 402.902 92.9703 403.312 93.5385 403.875C94.1067 404.434 94.5542 405.17 94.8809 406.084C95.2076 406.998 95.3709 408.113 95.3709 409.429C95.3757 410.641 95.2336 411.728 94.9448 412.689C94.656 413.645 94.2417 414.46 93.7019 415.132C93.1668 415.804 92.5229 416.318 91.7701 416.673C91.0172 417.024 90.1768 417.199 89.2488 417.199C88.226 417.199 87.324 417.002 86.5428 416.609C85.7663 416.212 85.1436 415.677 84.6749 415.004C84.2109 414.332 83.9339 413.579 83.8439 412.746H87.3027C87.4116 413.229 87.6413 413.593 87.9917 413.839C88.342 414.081 88.7611 414.202 89.2488 414.202C90.1389 414.202 90.8042 413.816 91.2445 413.044C91.6848 412.272 91.905 411.223 91.905 409.898H91.8198C91.6162 410.333 91.3274 410.707 90.9533 411.02C90.584 411.332 90.1555 411.571 89.6678 411.737C89.1801 411.903 88.6664 411.986 88.1266 411.986C87.2554 411.986 86.486 411.787 85.8184 411.389C85.1555 410.991 84.6346 410.445 84.2559 409.749C83.8818 409.053 83.6924 408.257 83.6877 407.362C83.6829 406.358 83.9173 405.473 84.3908 404.706C84.8643 403.934 85.5248 403.333 86.3723 402.902C87.2199 402.466 88.2024 402.251 89.3198 402.256ZM89.3411 404.955C88.9055 404.955 88.5172 405.056 88.1763 405.26C87.8401 405.464 87.575 405.738 87.3809 406.084C87.1867 406.429 87.092 406.818 87.0968 407.249C87.1015 407.679 87.1986 408.068 87.388 408.413C87.5821 408.759 87.8449 409.034 88.1763 409.237C88.5125 409.441 88.896 409.543 89.3269 409.543C89.6489 409.543 89.9471 409.483 90.2218 409.365C90.4964 409.247 90.7355 409.083 90.9391 408.875C91.1427 408.662 91.3013 408.416 91.415 408.136C91.5333 407.857 91.5901 407.559 91.5854 407.241C91.5807 406.82 91.4812 406.437 91.2871 406.091C91.093 405.745 90.8255 405.471 90.4846 405.267C90.1484 405.059 89.7672 404.955 89.3411 404.955Z" fill="#774936"/>
<rect x="10.5" y="347.5" width="158" height="38" rx="2.5" fill="#9D6B53" stroke="#CD9777" stroke-width="5"/>
<path d="M85.7553 359.455V374H82.2468V362.736H82.1616L78.9087 364.724V361.685L82.4954 359.455H85.7553ZM94.5391 374.199C93.4785 374.199 92.5362 374.007 91.7124 373.624C90.8885 373.24 90.2375 372.712 89.7592 372.04C89.2857 371.367 89.0395 370.596 89.0206 369.724H92.4297C92.4581 370.259 92.6759 370.69 93.0831 371.017C93.4903 371.339 93.9756 371.5 94.5391 371.5C94.9794 371.5 95.37 371.403 95.7109 371.209C96.0518 371.015 96.3194 370.742 96.5135 370.392C96.7076 370.037 96.8023 369.63 96.7976 369.17C96.8023 368.702 96.7053 368.292 96.5064 367.942C96.3123 367.591 96.0424 367.319 95.6967 367.125C95.3558 366.926 94.9628 366.827 94.5178 366.827C94.0964 366.822 93.6963 366.914 93.3175 367.104C92.9434 367.293 92.6593 367.551 92.4652 367.878L89.3615 367.295L89.9936 359.455H99.326V362.288H92.8842L92.5504 365.719H92.6357C92.8771 365.316 93.2654 364.985 93.8004 364.724C94.3402 364.459 94.9534 364.327 95.6399 364.327C96.5111 364.327 97.2876 364.53 97.9695 364.938C98.656 365.34 99.1958 365.899 99.5888 366.614C99.9865 367.329 100.185 368.148 100.185 369.071C100.185 370.07 99.9486 370.955 99.4751 371.727C99.0064 372.499 98.3482 373.105 97.5007 373.545C96.6579 373.981 95.6707 374.199 94.5391 374.199Z" fill="#774936"/>
<rect x="10.5" y="304.5" width="158" height="38" rx="2.5" fill="#9D6B53" stroke="#CD9777" stroke-width="5"/>
<path d="M82.7653 331.199C81.6573 331.199 80.6748 331.009 79.8178 330.631C78.9656 330.247 78.2932 329.719 77.8008 329.047C77.3084 328.375 77.0574 327.6 77.0479 326.724H80.5849C80.5991 327.042 80.7009 327.323 80.8903 327.57C81.0797 327.811 81.3377 328 81.6644 328.138C81.9911 328.275 82.3628 328.344 82.7795 328.344C83.1961 328.344 83.5631 328.27 83.8803 328.124C84.2023 327.972 84.4532 327.766 84.6332 327.506C84.8131 327.241 84.9007 326.937 84.896 326.597C84.9007 326.256 84.8036 325.953 84.6048 325.688C84.4059 325.422 84.1242 325.216 83.7596 325.07C83.3997 324.923 82.9736 324.849 82.4812 324.849H81.0678V322.349H82.4812C82.9121 322.349 83.2908 322.278 83.6175 322.136C83.949 321.994 84.207 321.795 84.3917 321.54C84.5763 321.279 84.6663 320.981 84.6616 320.645C84.6663 320.318 84.5882 320.032 84.4272 319.786C84.271 319.535 84.0508 319.34 83.7667 319.203C83.4873 319.066 83.163 318.997 82.7937 318.997C82.4054 318.997 82.0527 319.066 81.7354 319.203C81.4229 319.34 81.1744 319.535 80.9897 319.786C80.805 320.036 80.708 320.328 80.6985 320.659H77.3391C77.3486 319.793 77.5901 319.03 78.0636 318.372C78.5371 317.709 79.181 317.191 79.9954 316.817C80.8145 316.443 81.7473 316.256 82.7937 316.256C83.8353 316.256 84.7515 316.438 85.5423 316.803C86.333 317.167 86.9485 317.664 87.3888 318.294C87.8292 318.919 88.0494 319.627 88.0494 320.418C88.0541 321.237 87.7866 321.911 87.2468 322.442C86.7118 322.972 86.0228 323.299 85.18 323.422V323.536C86.3069 323.668 87.1568 324.033 87.7298 324.629C88.3074 325.226 88.5939 325.972 88.5891 326.866C88.5891 327.709 88.3406 328.457 87.8434 329.111C87.351 329.759 86.6644 330.271 85.7837 330.645C84.9078 331.014 83.9016 331.199 82.7653 331.199ZM96.1051 331.199C94.9972 331.199 94.0147 331.009 93.1577 330.631C92.3054 330.247 91.633 329.719 91.1406 329.047C90.6482 328.375 90.3973 327.6 90.3878 326.724H93.9247C93.9389 327.042 94.0407 327.323 94.2301 327.57C94.4195 327.811 94.6776 328 95.0043 328.138C95.331 328.275 95.7027 328.344 96.1193 328.344C96.536 328.344 96.9029 328.27 97.2202 328.124C97.5421 327.972 97.7931 327.766 97.973 327.506C98.1529 327.241 98.2405 326.937 98.2358 326.597C98.2405 326.256 98.1435 325.953 97.9446 325.688C97.7457 325.422 97.464 325.216 97.0994 325.07C96.7396 324.923 96.3134 324.849 95.821 324.849H94.4077V322.349H95.821C96.2519 322.349 96.6307 322.278 96.9574 322.136C97.2888 321.994 97.5469 321.795 97.7315 321.54C97.9162 321.279 98.0062 320.981 98.0014 320.645C98.0062 320.318 97.928 320.032 97.767 319.786C97.6108 319.535 97.3906 319.34 97.1065 319.203C96.8272 319.066 96.5028 318.997 96.1335 318.997C95.7453 318.997 95.3925 319.066 95.0753 319.203C94.7628 319.34 94.5142 319.535 94.3295 319.786C94.1449 320.036 94.0478 320.328 94.0384 320.659H90.679C90.6884 319.793 90.9299 319.03 91.4034 318.372C91.8769 317.709 92.5208 317.191 93.3352 316.817C94.1544 316.443 95.0871 316.256 96.1335 316.256C97.1752 316.256 98.0914 316.438 98.8821 316.803C99.6728 317.167 100.288 317.664 100.729 318.294C101.169 318.919 101.389 319.627 101.389 320.418C101.394 321.237 101.126 321.911 100.587 322.442C100.052 322.972 99.3627 323.299 98.5199 323.422V323.536C99.6468 323.668 100.497 324.033 101.07 324.629C101.647 325.226 101.934 325.972 101.929 326.866C101.929 327.709 101.68 328.457 101.183 329.111C100.691 329.759 100.004 330.271 99.1236 330.645C98.2476 331.014 97.2415 331.199 96.1051 331.199Z" fill="#774936"/>
<rect x="275.5" y="400.5" width="158" height="38" rx="2.5" fill="#9D6B53" stroke="#CD9777" stroke-width="5"/>
<path d="M350.238 412.455V427H346.729V415.736H346.644L343.391 417.724V414.685L346.978 412.455H350.238ZM359.469 427.355C358.2 427.355 357.106 427.054 356.188 426.453C355.269 425.847 354.561 424.978 354.064 423.847C353.567 422.71 353.321 421.344 353.325 419.749C353.33 418.153 353.579 416.799 354.071 415.686C354.568 414.569 355.274 413.719 356.188 413.136C357.106 412.549 358.2 412.256 359.469 412.256C360.738 412.256 361.832 412.549 362.75 413.136C363.673 413.719 364.384 414.569 364.881 415.686C365.378 416.804 365.624 418.158 365.619 419.749C365.619 421.349 365.371 422.717 364.874 423.854C364.377 424.99 363.669 425.859 362.75 426.46C361.836 427.057 360.743 427.355 359.469 427.355ZM359.469 424.479C360.227 424.479 360.84 424.093 361.308 423.321C361.777 422.545 362.009 421.354 362.004 419.749C362.004 418.697 361.898 417.831 361.685 417.149C361.472 416.463 361.176 415.951 360.797 415.615C360.418 415.279 359.976 415.111 359.469 415.111C358.716 415.111 358.108 415.492 357.644 416.254C357.18 417.012 356.945 418.177 356.941 419.749C356.936 420.814 357.038 421.697 357.246 422.398C357.459 423.098 357.757 423.622 358.141 423.967C358.524 424.308 358.967 424.479 359.469 424.479Z" fill="#774936"/>
<rect x="247.5" y="271.5" width="158" height="38" rx="2.5" fill="#9D6B53" stroke="#CD9777" stroke-width="5"/>
<path d="M321.464 298.199C320.357 298.199 319.374 298.009 318.517 297.631C317.665 297.247 316.992 296.719 316.5 296.047C316.008 295.375 315.757 294.6 315.747 293.724H319.284C319.298 294.042 319.4 294.323 319.589 294.57C319.779 294.811 320.037 295 320.364 295.138C320.69 295.275 321.062 295.344 321.479 295.344C321.895 295.344 322.262 295.27 322.58 295.124C322.902 294.972 323.152 294.766 323.332 294.506C323.512 294.241 323.6 293.937 323.595 293.597C323.6 293.256 323.503 292.953 323.304 292.688C323.105 292.422 322.823 292.216 322.459 292.07C322.099 291.923 321.673 291.849 321.18 291.849H319.767V289.349H321.18C321.611 289.349 321.99 289.278 322.317 289.136C322.648 288.994 322.906 288.795 323.091 288.54C323.276 288.279 323.366 287.981 323.361 287.645C323.366 287.318 323.287 287.032 323.126 286.786C322.97 286.535 322.75 286.34 322.466 286.203C322.187 286.066 321.862 285.997 321.493 285.997C321.105 285.997 320.752 286.066 320.435 286.203C320.122 286.34 319.874 286.535 319.689 286.786C319.504 287.036 319.407 287.328 319.398 287.659H316.038C316.048 286.793 316.289 286.03 316.763 285.372C317.236 284.709 317.88 284.191 318.695 283.817C319.514 283.443 320.446 283.256 321.493 283.256C322.535 283.256 323.451 283.438 324.241 283.803C325.032 284.167 325.648 284.664 326.088 285.294C326.528 285.919 326.749 286.627 326.749 287.418C326.753 288.237 326.486 288.911 325.946 289.442C325.411 289.972 324.722 290.299 323.879 290.422V290.536C325.006 290.668 325.856 291.033 326.429 291.629C327.007 292.226 327.293 292.972 327.288 293.866C327.288 294.709 327.04 295.457 326.543 296.111C326.05 296.759 325.364 297.271 324.483 297.645C323.607 298.014 322.601 298.199 321.464 298.199ZM335.998 283.455V298H332.489V286.736H332.404L329.151 288.724V285.685L332.738 283.455H335.998Z" fill="#774936"/>
<rect x="224.5" y="357.5" width="158" height="38" rx="2.5" fill="#9D6B53" stroke="#CD9777" stroke-width="5"/>
<path d="M297.119 384.199C295.988 384.199 294.977 384.019 294.087 383.659C293.201 383.295 292.505 382.802 291.999 382.182C291.497 381.557 291.246 380.851 291.246 380.065C291.246 379.464 291.39 378.912 291.679 378.411C291.968 377.909 292.359 377.492 292.851 377.161C293.348 376.824 293.902 376.609 294.513 376.514V376.401C293.713 376.254 293.057 375.882 292.546 375.286C292.039 374.689 291.786 373.991 291.786 373.19C291.786 372.433 292.015 371.758 292.475 371.166C292.939 370.574 293.571 370.108 294.371 369.767C295.176 369.426 296.092 369.256 297.119 369.256C298.147 369.256 299.061 369.426 299.861 369.767C300.666 370.108 301.298 370.574 301.757 371.166C302.221 371.758 302.453 372.433 302.453 373.19C302.453 373.995 302.195 374.696 301.679 375.293C301.168 375.884 300.517 376.254 299.726 376.401V376.514C300.332 376.609 300.881 376.824 301.374 377.161C301.871 377.492 302.264 377.909 302.553 378.411C302.846 378.912 302.993 379.464 302.993 380.065C302.993 380.851 302.74 381.557 302.233 382.182C301.727 382.802 301.03 383.295 300.145 383.659C299.264 384.019 298.256 384.199 297.119 384.199ZM297.119 381.706C297.55 381.706 297.929 381.625 298.256 381.464C298.583 381.299 298.838 381.069 299.023 380.776C299.212 380.482 299.307 380.151 299.307 379.781C299.307 379.402 299.212 379.066 299.023 378.773C298.834 378.479 298.573 378.25 298.242 378.084C297.915 377.913 297.541 377.828 297.119 377.828C296.703 377.828 296.329 377.913 295.997 378.084C295.666 378.25 295.405 378.479 295.216 378.773C295.027 379.066 294.932 379.402 294.932 379.781C294.932 380.151 295.024 380.482 295.209 380.776C295.398 381.064 295.656 381.292 295.983 381.457C296.315 381.623 296.693 381.706 297.119 381.706ZM297.119 375.349C297.489 375.349 297.816 375.274 298.1 375.122C298.388 374.971 298.613 374.76 298.774 374.49C298.94 374.22 299.023 373.915 299.023 373.574C299.023 373.233 298.94 372.932 298.774 372.672C298.613 372.411 298.391 372.208 298.107 372.061C297.823 371.91 297.494 371.834 297.119 371.834C296.75 371.834 296.421 371.91 296.132 372.061C295.843 372.208 295.619 372.411 295.458 372.672C295.297 372.932 295.216 373.233 295.216 373.574C295.216 373.915 295.297 374.22 295.458 374.49C295.623 374.755 295.851 374.966 296.139 375.122C296.428 375.274 296.755 375.349 297.119 375.349ZM304.953 384V381.472L310.259 376.827C310.656 376.467 310.995 376.138 311.274 375.839C311.554 375.536 311.767 375.233 311.914 374.93C312.06 374.623 312.134 374.289 312.134 373.929C312.134 373.527 312.046 373.183 311.871 372.899C311.696 372.61 311.454 372.388 311.146 372.232C310.839 372.075 310.486 371.997 310.088 371.997C309.686 371.997 309.333 372.08 309.03 372.246C308.727 372.407 308.49 372.641 308.32 372.949C308.154 373.257 308.071 373.631 308.071 374.071H304.74C304.74 373.081 304.963 372.227 305.408 371.507C305.853 370.787 306.478 370.233 307.283 369.845C308.093 369.452 309.032 369.256 310.102 369.256C311.206 369.256 312.164 369.44 312.979 369.81C313.793 370.179 314.423 370.695 314.868 371.358C315.318 372.016 315.543 372.781 315.543 373.652C315.543 374.206 315.432 374.755 315.209 375.3C314.986 375.844 314.586 376.446 314.009 377.104C313.436 377.762 312.621 378.55 311.566 379.469L309.825 381.074V381.166H315.72V384H304.953Z" fill="#774936"/>
<rect x="275.5" y="314.5" width="158" height="38" rx="2.5" fill="#9D6B53" stroke="#CD9777" stroke-width="5"/>
<path d="M350.951 326.455V341H347.442V329.736H347.357L344.104 331.724V328.685L347.691 326.455H350.951ZM354.166 341V338.472L359.472 333.827C359.869 333.467 360.208 333.138 360.487 332.839C360.767 332.536 360.98 332.233 361.126 331.93C361.273 331.623 361.347 331.289 361.347 330.929C361.347 330.527 361.259 330.183 361.084 329.899C360.909 329.61 360.667 329.388 360.359 329.232C360.052 329.075 359.699 328.997 359.301 328.997C358.899 328.997 358.546 329.08 358.243 329.246C357.94 329.407 357.703 329.641 357.533 329.949C357.367 330.257 357.284 330.631 357.284 331.071H353.953C353.953 330.081 354.176 329.227 354.621 328.507C355.066 327.787 355.691 327.233 356.496 326.845C357.305 326.452 358.245 326.256 359.315 326.256C360.419 326.256 361.377 326.44 362.192 326.81C363.006 327.179 363.636 327.695 364.081 328.358C364.531 329.016 364.756 329.781 364.756 330.652C364.756 331.206 364.644 331.755 364.422 332.3C364.199 332.844 363.799 333.446 363.222 334.104C362.649 334.762 361.834 335.55 360.778 336.469L359.038 338.074V338.166H364.933V341H354.166Z" fill="#774936"/>
<rect x="241.5" y="443.5" width="158" height="38" rx="2.5" fill="#9D6B53" stroke="#CD9777" stroke-width="5"/>
<path d="M308.106 470V467.472L313.411 462.827C313.809 462.467 314.147 462.138 314.427 461.839C314.706 461.536 314.919 461.233 315.066 460.93C315.213 460.623 315.286 460.289 315.286 459.929C315.286 459.527 315.198 459.183 315.023 458.899C314.848 458.61 314.607 458.388 314.299 458.232C313.991 458.075 313.638 457.997 313.241 457.997C312.838 457.997 312.485 458.08 312.182 458.246C311.879 458.407 311.643 458.641 311.472 458.949C311.306 459.257 311.224 459.631 311.224 460.071H307.893C307.893 459.081 308.115 458.227 308.56 457.507C309.005 456.787 309.63 456.233 310.435 455.845C311.245 455.452 312.185 455.256 313.255 455.256C314.358 455.256 315.317 455.44 316.131 455.81C316.946 456.179 317.575 456.695 318.02 457.358C318.47 458.016 318.695 458.781 318.695 459.652C318.695 460.206 318.584 460.755 318.361 461.3C318.139 461.844 317.739 462.446 317.161 463.104C316.588 463.762 315.774 464.55 314.718 465.469L312.978 467.074V467.166H318.873V470H308.106ZM326.875 470.355C325.606 470.355 324.512 470.054 323.594 469.453C322.675 468.847 321.968 467.978 321.47 466.847C320.973 465.71 320.727 464.344 320.732 462.749C320.736 461.153 320.985 459.799 321.477 458.686C321.975 457.569 322.68 456.719 323.594 456.136C324.512 455.549 325.606 455.256 326.875 455.256C328.144 455.256 329.238 455.549 330.156 456.136C331.08 456.719 331.79 457.569 332.287 458.686C332.784 459.804 333.03 461.158 333.026 462.749C333.026 464.349 332.777 465.717 332.28 466.854C331.783 467.99 331.075 468.859 330.156 469.46C329.243 470.057 328.149 470.355 326.875 470.355ZM326.875 467.479C327.633 467.479 328.246 467.093 328.715 466.321C329.183 465.545 329.415 464.354 329.411 462.749C329.411 461.697 329.304 460.831 329.091 460.149C328.878 459.463 328.582 458.951 328.203 458.615C327.825 458.279 327.382 458.111 326.875 458.111C326.122 458.111 325.514 458.492 325.05 459.254C324.586 460.012 324.352 461.177 324.347 462.749C324.342 463.814 324.444 464.697 324.652 465.398C324.865 466.098 325.164 466.622 325.547 466.967C325.931 467.308 326.373 467.479 326.875 467.479Z" fill="#774936"/>
</svg>
